<?xml version="1.0" encoding="UTF-8"?>
<!DOCTYPE svg PUBLIC "-//W3C//DTD SVG 1.1//EN" "http://www.w3.org/Graphics/SVG/1.1/DTD/svg11.dtd">
<svg version="1.2" xmlns="http://www.w3.org/2000/svg" xmlns:xlink="http://www.w3.org/1999/xlink" x="0" y="0" width="304" height="553" viewBox="0 0 304 553">
<style type="text/css"><![CDATA[
text { font:12px Dialog; }
]]></style>
<rect x="-1121" y="-1086" width="2558" height="3046" style="fill:rgb(255,255,255);stroke:none" />
<clipPath id="clip1"><path d="M44,14 L250,14 L250,219 L44,219 L44,14 Z" /></clipPath>
<path d="M244.9999847,115.9999847 C244.9999847,61.8760757 200.9000244,17.9999847 146.4999542,18 C92.0998993,18.0000153 47.9999695,61.876133 48,116.0000229 C48.0000153,170.1239319 92.0999832,214.0000305 146.5001221,213.9999847 C200.9001617,213.9999084 245.0000458,170.123764 244.9999847,115.9998779 Z" style="fill:rgb(255,255,255);stroke:none" clip-path="url(#clip1)" />
<clipPath id="clip2"><path d="M44,14 L250,14 L250,219 L44,219 L44,14 Z" /></clipPath>
<path d="M244.9999847,115.9999847 C244.9999847,61.8760757 200.9000244,17.9999847 146.4999542,18 C92.0998993,18.0000153 47.9999695,61.876133 48,116.0000229 C48.0000153,170.1239319 92.0999832,214.0000305 146.5001221,213.9999847 C200.9001617,213.9999084 245.0000458,170.123764 244.9999847,115.9998779 Z" style="fill:none;stroke:rgb(127,127,127);stroke-width:5" clip-path="url(#clip2)" />
<clipPath id="clip3"><path d="M88,60 L206,60 L206,173 L88,173 L88,60 Z" /></clipPath>
<path d="M123.2570877,83.0700684 C123.2570877,83.6374512 123.0520096,84.1330566 122.6418533,84.5568848 C122.2316971,84.9807129 121.5105057,85.192627 120.4782791,85.192627 C120.0065994,85.192627 119.5178299,85.1755371 119.0119705,85.1413574 L118.4480057,83.2956543 L120.7961502,83.2751465 C120.9602127,83.2751465 121.1071854,83.2050781 121.2370682,83.0649414 C121.366951,82.9248047 121.4318924,82.7727051 121.4318924,82.6086426 L121.4318924,78.8249512 L116.2639236,78.8249512 L116.2639236,84.7004395 L114.479744,84.7004395 L114.479744,78.8249512 L109.3938065,78.8249512 C109.161377,81.5251465 108.5393066,83.6750488 107.5275955,85.2746582 L105.8664627,84.197998 C106.4543457,83.322998 106.9089355,82.1660156 107.2302322,80.7270508 C107.5515137,79.2880859 107.7121658,77.9123535 107.7121658,76.5998535 L107.7121658,67.2995605 L123.2570877,67.2995605 Z M121.4318924,72.170166 L121.4318924,69.1247559 L116.2639236,69.1247559 L116.2639236,72.170166 Z M114.479744,72.170166 L114.479744,69.1247559 L109.5783768,69.1247559 L109.5783768,72.170166 Z M121.4318924,77.0612793 L121.4318924,73.9133301 L116.2639236,73.9133301 L116.2639236,77.0612793 Z M114.479744,77.0612793 L114.479744,73.9133301 L109.5783768,73.9133301 L109.5783768,77.0612793 Z M144.7492676,75.8820801 L131.142334,75.8820801 C131.0739746,80.2980957 130.270752,83.4631348 128.732666,85.3771973 L127.276619,84.0134277 C127.8781815,83.1999512 128.3583984,82.1882324 128.7172852,80.9782715 C129.0761719,79.7683105 129.2556152,78.0559082 129.2556152,75.8410645 L129.2556152,68.9709473 L136.1257324,68.9709473 C135.8317871,68.3898926 135.4797363,67.7746582 135.0695801,67.1252441 L137.0075684,66.6228027 C137.267334,67.0534668 137.6569824,67.8361816 138.1765137,68.9709473 L144.7492676,68.9709473 Z M142.8830566,74.0979004 L142.8830566,70.755127 L131.1628418,70.755127 L131.1628418,74.0979004 Z M153.8444977,70.2321777 L152.2448883,71.1550293 C151.6775055,70.0749512 150.8298492,68.8991699 149.7019196,67.6276855 L151.2605133,66.6228027 C152.2995758,67.7780762 153.1609039,68.9812012 153.8444977,70.2321777 Z M167.0720215,83.5109863 C167.0720215,84.6320801 166.4328613,85.192627 165.154541,85.192627 C164.8127441,85.192627 164.0881348,85.1755371 162.9807281,85.1413574 L162.4987946,83.3776855 C163.8181152,83.4050293 164.6162109,83.4084473 164.8930664,83.3879395 C165.1699219,83.3674316 165.3083496,83.223877 165.3083496,82.9572754 L165.3083496,69.0119629 L157.0744781,69.0119629 L157.0744781,76.3845215 C157.0744629,78.8181152 156.9326172,80.6381836 156.648941,81.8447266 C156.3652344,83.0512695 155.9602051,84.1706543 155.4338531,85.2028809 L153.9470367,84.0544434 C154.8835602,82.126709 155.3518219,79.6213379 155.3518219,76.5383301 L155.3518219,67.3200684 L167.0720215,67.3200684 Z M164.5905762,75.9025879 L157.6897125,75.9025879 L157.6897125,74.2927246 L160.3557281,74.2927246 L160.3557281,72.5700684 L158.0178375,72.5700684 L158.0178375,70.9294434 L160.3557281,70.9294434 L160.3557281,69.545166 L162.0578766,69.545166 L162.0578766,70.9294434 L164.385498,70.9294434 L164.385498,72.5700684 L162.0578766,72.5700684 L162.0578766,74.2927246 L164.5905762,74.2927246 Z M154.4494781,81.6550293 C153.3830719,82.6257324 152.5285797,83.3127441 151.8860016,83.7160645 L151.0451813,82.4958496 C151.1613922,82.2770996 151.2194977,82.010498 151.2194977,81.6960449 L151.2194977,74.036377 L149.2404938,74.036377 L149.2404938,72.2727051 L153.0241852,72.2727051 L153.0241852,80.6296387 C153.3318024,80.376709 153.6120758,80.1237793 153.8650055,79.8708496 Z M164.1291504,82.3522949 L158.0178375,82.3522949 L158.0178375,77.0612793 L164.1291504,77.0612793 Z M162.4782867,80.7116699 L162.4782867,78.7019043 L159.6789703,78.7019043 L159.6789703,80.7116699 Z M188.1335449,83.0700684 C188.1335449,83.6374512 187.9284668,84.1330566 187.5183105,84.5568848 C187.1081543,84.9807129 186.3869629,85.192627 185.3547363,85.192627 C184.8830566,85.192627 184.3942871,85.1755371 183.8884277,85.1413574 L183.3244629,83.2956543 L185.6726074,83.2751465 C185.8366699,83.2751465 185.9836426,83.2050781 186.1135254,83.0649414 C186.2434082,82.9248047 186.3083496,82.7727051 186.3083496,82.6086426 L186.3083496,78.8249512 L181.1403809,78.8249512 L181.1403809,84.7004395 L179.3562012,84.7004395 L179.3562012,78.8249512 L174.2702789,78.8249512 C174.0378418,81.5251465 173.4157715,83.6750488 172.404068,85.2746582 L170.7429352,84.197998 C171.3308105,83.322998 171.7854004,82.1660156 172.1067047,80.7270508 C172.4279785,79.2880859 172.5886383,77.9123535 172.5886383,76.5998535 L172.5886383,67.2995605 L188.1335449,67.2995605 Z M186.3083496,72.170166 L186.3083496,69.1247559 L181.1403809,69.1247559 L181.1403809,72.170166 Z M179.3562012,72.170166 L179.3562012,69.1247559 L174.4548492,69.1247559 L174.4548492,72.170166 Z M186.3083496,77.0612793 L186.3083496,73.9133301 L181.1403809,73.9133301 L181.1403809,77.0612793 Z M179.3562012,77.0612793 L179.3562012,73.9133301 L174.4548492,73.9133301 L174.4548492,77.0612793 Z" style="fill:rgb(117,117,117);stroke:none" clip-path="url(#clip3)" />
<clipPath id="clip4"><path d="M88,60 L206,60 L206,173 L88,173 L88,60 Z" /></clipPath>
<path d="M97.5095291,99.7341309 C97.1540527,99.501709 96.682373,99.385498 96.0944901,99.385498 C95.3151932,99.385498 94.6845779,99.7272949 94.2026443,100.4108887 C93.7207108,101.0944824 93.479744,102.0002441 93.479744,103.1281738 L93.479744,108.7780762 L91.070076,108.7780762 L91.070076,97.4372559 L93.479744,97.4372559 L93.479744,99.6931152 L93.5310135,99.6931152 C94.0915527,98.0593262 95.0827637,97.2424316 96.5046463,97.2424316 C96.9284668,97.2424316 97.2634354,97.2902832 97.5095291,97.3859863 Z M109.0964432,103.7536621 L101.3034744,103.7536621 C101.4060135,106.0437012 102.5715332,107.1887207 104.8000565,107.1887207 C106.0578613,107.1887207 107.2028809,106.8127441 108.2351151,106.060791 L108.2351151,108.0500488 C107.2233887,108.7131348 105.8937988,109.0446777 104.2463455,109.0446777 C102.5647049,109.0446777 101.2487793,108.5319824 100.2985916,107.5065918 C99.3483887,106.4812012 98.8732986,105.0456543 98.8732986,103.1999512 C98.8732986,101.4499512 99.3842773,100.0075684 100.4062576,98.8728027 C101.4282227,97.7380371 102.7082596,97.1706543 104.2463455,97.1706543 C105.7775879,97.1706543 106.96875,97.6542969 107.8198318,98.621582 C108.6709061,99.5888672 109.0964432,100.920166 109.0964432,102.6154785 Z M106.7585526,102.0002441 C106.751709,101.029541 106.529541,100.2844238 106.0920486,99.7648926 C105.654541,99.2453613 105.0324707,98.9855957 104.2258377,98.9855957 C103.4943848,98.9855957 102.8586426,99.2607422 102.3186111,99.8110352 C101.7785645,100.3613281 101.4436035,101.0910645 101.3137283,102.0002441 Z M122.1496658,113.9973145 L119.7502518,113.9973145 L119.7502518,106.9631348 L119.6989822,106.9631348 C118.9128494,108.3508301 117.6687088,109.0446777 115.9665604,109.0446777 C114.5310135,109.0446777 113.3842773,108.5405273 112.5263748,107.5322266 C111.668457,106.5239258 111.2395096,105.1379395 111.2395096,103.3742676 C111.2395096,101.4807129 111.7145996,99.9733887 112.6648026,98.8522949 C113.6149902,97.7312012 114.8693924,97.1706543 116.4279861,97.1706543 C117.9250565,97.1706543 119.0153885,97.755127 119.6989822,98.9240723 L119.7502518,98.9240723 L119.7502518,97.4372559 L122.1496658,97.4372559 Z M119.7707596,102.1745605 C119.7707596,101.3269043 119.5007401,100.6022949 118.960701,100.0007324 C118.4206619,99.3991699 117.7233963,99.0983887 116.8689041,99.0983887 C115.8776932,99.0983887 115.1001053,99.4726563 114.5361404,100.2211914 C113.9721756,100.9697266 113.6901932,102.0002441 113.6901932,103.3127441 C113.6901932,104.5021973 113.963623,105.4335938 114.5105057,106.1069336 C115.0573807,106.7802734 115.7683182,107.1169434 116.6433182,107.1169434 C117.6003494,107.1169434 118.3608475,106.7802734 118.9248123,106.1069336 C119.4887772,105.4335938 119.7707596,104.5842285 119.7707596,103.5588379 Z M135.7053223,108.7780762 L133.3059082,108.7780762 L133.3059082,107.0041504 L133.2546387,107.0041504 C132.4685059,108.364502 131.3063965,109.0446777 129.7683105,109.0446777 C127.0954666,109.0446777 125.7590408,107.4416504 125.7590408,104.2355957 L125.7590408,97.4372559 L128.1584473,97.4372559 L128.1584473,103.9382324 C128.1584473,106.057373 128.9719238,107.1169434 130.598877,107.1169434 C131.3918457,107.1169434 132.0412598,106.826416 132.5471191,106.2453613 C133.0529785,105.6643066 133.3059082,104.9020996 133.3059082,103.9587402 L133.3059082,97.4372559 L135.7053223,97.4372559 Z M148.9943848,103.7536621 L141.201416,103.7536621 C141.3039551,106.0437012 142.4694824,107.1887207 144.697998,107.1887207 C145.9558105,107.1887207 147.1008301,106.8127441 148.1330566,106.060791 L148.1330566,108.0500488 C147.1213379,108.7131348 145.791748,109.0446777 144.1442871,109.0446777 C142.4626465,109.0446777 141.1467285,108.5319824 140.1965332,107.5065918 C139.2463379,106.4812012 138.7712402,105.0456543 138.7712402,103.1999512 C138.7712402,101.4499512 139.2822266,100.0075684 140.3041992,98.8728027 C141.3261719,97.7380371 142.6062012,97.1706543 144.1442871,97.1706543 C145.6755371,97.1706543 146.8666992,97.6542969 147.7177734,98.621582 C148.5688477,99.5888672 148.9943848,100.920166 148.9943848,102.6154785 Z M146.6564941,102.0002441 C146.6496582,101.029541 146.4274902,100.2844238 145.9899902,99.7648926 C145.5524902,99.2453613 144.9304199,98.9855957 144.1237793,98.9855957 C143.392334,98.9855957 142.7565918,99.2607422 142.2165527,99.8110352 C141.6765137,100.3613281 141.3415527,101.0910645 141.2116699,102.0002441 Z M151.3322906,106.1428223 C152.391861,106.8605957 153.4924469,107.2194824 154.6340485,107.2194824 C156.1379395,107.2194824 156.8898926,106.7546387 156.8898926,105.8249512 C156.8898926,105.4353027 156.732666,105.1157227 156.4182129,104.8662109 C156.1037598,104.6166992 155.3962402,104.2868652 154.2956696,103.876709 C153.1403961,103.432373 152.3610992,102.9589844 151.9577789,102.456543 C151.5544586,101.9541016 151.3527985,101.3234863 151.3527985,100.5646973 C151.3527985,99.5187988 151.7902985,98.6916504 152.6652985,98.083252 C153.5402985,97.4748535 154.6237946,97.1706543 155.9157715,97.1706543 C156.9069824,97.1706543 157.833252,97.3347168 158.6945801,97.6628418 L158.6945801,99.7956543 C157.833252,99.2624512 156.8693848,98.9958496 155.8029785,98.9958496 C155.1945801,98.9958496 154.7023926,99.1223145 154.3264313,99.3752441 C153.9504547,99.6281738 153.7624664,99.9597168 153.7624664,100.369873 C153.7624664,100.7731934 153.9008942,101.0910645 154.1777496,101.3234863 C154.4545898,101.5559082 155.092041,101.8635254 156.0900879,102.2463379 C157.3205566,102.6975098 158.159668,103.1777344 158.6074219,103.6870117 C159.0551758,104.1962891 159.2790527,104.8303223 159.2790527,105.5891113 C159.2790527,106.6623535 158.8415527,107.5065918 157.9665527,108.1218262 C157.0915527,108.7370605 155.9431152,109.0446777 154.5212555,109.0446777 C153.3044586,109.0446777 152.2414703,108.8327637 151.3322906,108.4089355 Z M167.9025879,108.6550293 C167.458252,108.907959 166.8190918,109.0344238 165.9851074,109.0344238 C163.8317871,109.0344238 162.7551422,107.8654785 162.7551422,105.5275879 L162.7551422,99.3444824 L160.8376617,99.3444824 L160.8376617,97.4372559 L162.7551422,97.4372559 L162.7551422,94.7814941 L165.154541,94.0534668 L165.154541,97.4372559 L167.9025879,97.4372559 L167.9025879,99.3444824 L165.154541,99.3444824 L165.154541,105.1071777 C165.154541,105.8112793 165.2792969,106.3205566 165.5288086,106.6350098 C165.7783203,106.9494629 166.1799316,107.1066895 166.7336426,107.1066895 C167.1643066,107.1066895 167.5539551,106.9836426 167.9025879,106.7375488 Z M173.8088379,112.3874512 C171.4914551,109.7692871 170.3327637,106.5427246 170.3327637,102.7077637 C170.3327637,98.9206543 171.4914551,95.6496582 173.8088379,92.8947754 L175.869873,92.8947754 C173.5866699,95.7521973 172.4450684,99.0197754 172.4450684,102.6975098 C172.4450684,106.3547363 173.5866699,109.5847168 175.869873,112.3874512 Z M176.5466309,112.3874512 C178.8366699,109.5983887 179.9816895,106.3684082 179.9816895,102.6975098 C179.9816895,99.0334473 178.833252,95.7658691 176.536377,92.8947754 L178.607666,92.8947754 C180.9387207,95.6564941 182.104248,98.9274902 182.104248,102.7077637 C182.104248,106.5358887 180.9353027,109.7624512 178.5974121,112.3874512 Z M200.0588531,93.7458496 C198.8215332,94.8942871 197.3005524,96.0256348 195.4958649,97.1398926 L195.4958649,104.5534668 C195.4958649,105.0661621 195.3471832,105.4934082 195.0498199,105.8352051 C194.7524567,106.177002 194.0568848,106.3479004 192.96315,106.3479004 C192.6486816,106.3479004 192.282959,106.3376465 191.8659821,106.3171387 L191.2404938,104.5739746 C191.9377594,104.6081543 192.4743652,104.6252441 192.8503571,104.6252441 C193.1989899,104.6252441 193.4297028,104.5893555 193.5424957,104.5175781 C193.6552887,104.4458008 193.7116852,104.310791 193.7116852,104.1125488 L193.7116852,96.1965332 C195.2634277,95.342041 196.5110016,94.5251465 197.454361,93.7458496 L188.923111,93.7458496 L188.923111,92.0026855 L200.0588531,92.0026855 Z M202.9299469,109.8444824 L201.1047516,109.8444824 L201.1047516,108.9216309 L186.1340485,108.9216309 L186.1340485,95.3762207 L187.938736,95.3762207 L187.938736,107.157959 L201.1047516,107.157959 L201.1047516,95.3762207 L202.9299469,95.3762207 Z M193.1067047,98.298584 L191.9275055,99.6418457 C191.1208496,98.8146973 190.0852051,97.967041 188.8205719,97.098877 L189.9792633,95.776123 C191.107193,96.4802246 192.1496582,97.3210449 193.1067047,98.298584 Z M200.7253571,97.1193848 C199.5085449,98.2473145 198.3395996,99.1086426 197.2185211,99.7033691 C196.9929352,99.3752441 196.6374512,98.9138184 196.1521149,98.3190918 C197.2185211,97.751709 198.3395996,96.9245605 199.5153961,95.8376465 Z M192.9221344,101.8054199 C191.8898926,102.994873 190.6765289,104.1159668 189.2819977,105.1687012 L188.3386383,103.5690918 C189.8083496,102.4753418 190.9978027,101.4123535 191.9069977,100.380127 Z M200.5818024,103.989502 L199.3205719,105.2302246 C198.0969238,103.7263184 196.9348145,102.5437012 195.8342438,101.682373 L197.013443,100.4211426 C198.4284821,101.583252 199.6179352,102.7727051 200.5818024,103.989502 Z" style="fill:rgb(117,117,117);stroke:none" clip-path="url(#clip4)" />
<clipPath id="clip5"><path d="M88,60 L206,60 L206,173 L88,173 L88,60 Z" /></clipPath>
<path d="M113.2646561,138.1569824 L112.1059647,139.5002441 C110.5610352,138.5227051 109.2861328,137.3605957 108.2812576,136.013916 C107.3447266,137.1623535 106.0288086,138.317627 104.3335037,139.4797363 L103.1132889,138.095459 C104.8974686,136.9538574 106.271492,135.7302246 107.2353592,134.4245605 C106.5791092,133.1940918 106.1108398,131.9465332 105.830574,130.6818848 L107.3378983,129.9436035 C107.5976563,131.0305176 107.9189453,131.9499512 108.3017654,132.7019043 C109.1972656,130.7946777 109.7714844,128.4499512 110.0244217,125.6677246 L107.5942459,125.6677246 C106.965332,127.6022949 106.2988281,129.2189941 105.5947342,130.5178223 L104.189949,129.4616699 C105.3862305,127.2194824 106.309082,124.3518066 106.9585037,120.8586426 L108.6196365,121.2790527 C108.503418,122.0378418 108.3154297,122.9196777 108.0556717,123.9245605 L112.9262772,123.9245605 L112.9262772,125.6677246 L111.7880936,125.6677246 C111.3984375,129.4753418 110.5883789,132.4284668 109.3579178,134.5270996 C110.3149414,135.9284668 111.6171875,137.1384277 113.2646561,138.1569824 Z M104.7334061,126.057373 L100.7446365,126.057373 L100.7446365,129.6975098 L98.939949,129.6975098 L98.939949,126.057373 L94.9101639,126.057373 L94.9101639,124.427002 L98.939949,124.427002 L98.939949,120.920166 L100.7446365,120.920166 L100.7446365,124.427002 L104.7334061,124.427002 Z M98.4580154,123.2888184 L97.0942459,124.2321777 C96.7319336,123.6169434 96.1850586,122.8752441 95.4536209,122.0070801 L96.7763748,121.0021973 C97.5419922,121.8088379 98.1025391,122.5710449 98.4580154,123.2888184 Z M104.4565506,122.0891113 C104.0395508,122.7111816 103.3833008,123.4187012 102.4878006,124.2116699 L101.0830154,123.2272949 C101.7734375,122.666748 102.4433594,121.9797363 103.0927811,121.1662598 Z M98.3247147,127.2570801 C97.7983398,128.145752 96.9096756,129.1472168 95.658699,130.2614746 L94.4487381,129.020752 C95.3852539,128.2414551 96.2158203,127.3322754 96.9404373,126.2932129 Z M104.4565506,128.2927246 L103.205574,129.3591309 C102.7202148,128.682373 102.0810547,128.0090332 101.2880936,127.3391113 L102.5698318,126.3547363 C103.1645584,126.8537598 103.793457,127.4997559 104.4565506,128.2927246 Z M104.8359451,133.1223145 L102.8671951,133.1223145 C102.5390625,134.1271973 102.1118164,134.9851074 101.5854568,135.6960449 L103.7285233,136.6291504 L102.7646561,138.1159668 C101.8759766,137.6853027 101.0488281,137.3366699 100.2832108,137.0700684 C98.9980469,138.1159668 97.4291992,138.9055176 95.5766678,139.4387207 L94.5922928,137.9313965 C96.0141602,137.5690918 97.2651367,137.0427246 98.3452225,136.3522949 C97.6547852,136.0788574 96.6499023,135.7712402 95.330574,135.4294434 C95.9526367,134.5339355 96.4414063,133.7648926 96.7968826,133.1223145 L94.7973709,133.1223145 L94.7973709,131.5227051 L97.6171951,131.5227051 C97.8837967,131.0441895 98.1640625,130.4494629 98.4580154,129.7385254 L100.0883865,130.3024902 C100.0405273,130.4870605 99.8662109,130.8937988 99.5654373,131.5227051 L101.5444412,131.5227051 C101.6538086,131.1398926 101.7290115,130.760498 101.7700272,130.3845215 L103.4721756,130.7023926 L103.3286209,131.5227051 L104.8359451,131.5227051 Z M101.0419998,133.1223145 L98.7656326,133.1223145 C98.6357422,133.4025879 98.3793945,133.8571777 97.9965897,134.486084 C98.8852539,134.7526855 99.5209961,134.9611816 99.9038162,135.1115723 C100.300293,134.6330566 100.6796875,133.9699707 101.0419998,133.1223145 Z M131.9472656,121.2995605 C130.921875,122.6394043 129.9204102,123.7229004 128.9428711,124.5500488 L127.0356522,123.6477051 C127.9858475,122.9025879 128.956543,121.9216309 129.9477539,120.704834 Z M123.8364334,123.8117676 L121.8266678,124.4885254 C120.9653397,123.3674316 120.0322342,122.345459 119.0273514,121.4226074 L120.9858475,120.7458496 C122.02491,121.6208496 122.9751053,122.6428223 123.8364334,123.8117676 Z M134.6542969,132.3225098 L129.8862305,132.3225098 L129.8862305,139.182373 L127.9585037,139.182373 L127.9585037,132.3225098 L123.0673904,132.3225098 C122.6367264,135.5285645 120.7465897,137.8220215 117.3969803,139.2028809 L116.2177811,137.552002 C117.4755936,137.2033691 118.5693436,136.5385742 119.4990311,135.5576172 C120.4287186,134.5766602 120.9653397,133.498291 121.1088943,132.3225098 L116.4023514,132.3225098 L116.4023514,130.4768066 L121.2729568,130.4768066 L121.2729568,126.713623 L117.1201248,126.713623 L117.1201248,124.9089355 L133.875,124.9089355 L133.875,126.713623 L129.8862305,126.713623 L129.8862305,130.4768066 L134.6542969,130.4768066 Z M127.9585037,130.4768066 L127.9585037,126.713623 L123.2109451,126.713623 L123.2109451,130.4768066 Z M142.9702301,121.0637207 C142.8061676,121.8156738 142.5327301,122.7453613 142.1499176,123.8527832 L141.5756989,125.4523926 L141.5756989,139.1618652 L139.7710114,139.1618652 L139.7710114,129.3181152 C139.374527,130.0153809 139.039566,130.5246582 138.7661285,130.8459473 L137.7612457,128.8977051 C139.2924957,126.7033691 140.461441,123.9040527 141.2680817,120.4997559 Z M156.320816,128.795166 L147.7588043,128.795166 C147.4853516,129.6086426 147.2324219,130.3366699 147.0000153,130.979248 L154.792984,130.979248 L154.792984,132.6608887 C153.5009766,134.1989746 152.253418,135.4567871 151.0503082,136.4343262 C152.2192535,137.2819824 152.9882965,137.8630371 153.3574371,138.1774902 L152.0141754,139.3566895 C150.3051758,137.9211426 147.9262695,136.4240723 144.8774567,134.8654785 L146.0976715,133.5427246 L149.4506989,135.470459 C150.312027,134.8347168 151.3203125,133.8981934 152.4756012,132.6608887 L144.9799957,132.6608887 L144.9799957,131.1433105 L145.8413239,128.795166 L142.5703278,128.795166 L142.5703278,127.0930176 L146.4052887,127.0930176 C146.7060547,126.1838379 146.9179688,125.4626465 147.0410309,124.9294434 L143.3393707,124.9294434 L143.3393707,123.2272949 L147.5024567,123.2272949 C147.6733398,122.6599121 147.8818512,121.791748 148.1279449,120.6228027 L149.9121246,121.0637207 C149.7753906,121.7199707 149.6010742,122.4411621 149.3891754,123.2272949 L155.5825348,123.2272949 L155.5825348,124.9294434 L148.9482574,124.9294434 C148.6748047,125.9343262 148.4731445,126.6555176 148.343277,127.0930176 L156.320816,127.0930176 Z M178.0283356,137.8391113 L176.562027,139.2336426 C172.5630035,135.7473145 170.0131836,131.9362793 168.9126129,127.8005371 C167.5180664,132.5788574 164.8110352,136.338623 160.7915192,139.079834 L159.4277496,137.6135254 C161.2392731,136.4172363 162.8029938,134.9611816 164.1189117,133.2453613 C165.4348145,131.529541 166.4379883,129.6479492 167.1284332,127.6005859 C167.8188477,125.5532227 168.1640778,124.2150879 168.1640778,123.5861816 L168.1025543,123.1657715 L165.5595856,123.1657715 L165.5595856,121.2995605 L169.8662262,121.2995605 C170.0507965,125.3327637 170.847168,128.6054688 172.2553864,131.1176758 C173.6635742,133.6298828 175.5879059,135.8703613 178.0283356,137.8391113 Z M199.5512695,134.4655762 C199.5512695,136.119873 199.4333496,137.21875 199.1975098,137.762207 C198.9616699,138.3056641 198.6489258,138.6525879 198.2592773,138.8029785 C197.8696289,138.9533691 196.8544922,139.0285645 195.2138672,139.0285645 C193.9492188,139.0285645 193.154541,138.965332 192.829834,138.8388672 C192.505127,138.7124023 192.2556152,138.5107422 192.0812988,138.2338867 C191.9069824,137.9570313 191.8198242,137.6032715 191.8198242,137.1726074 L191.8198242,127.7595215 L197.0083008,127.7595215 L197.0083008,123.1452637 L191.6352539,123.1452637 L191.6352539,121.361084 L198.8129883,121.361084 L198.8129883,129.5231934 L193.6347656,129.5231934 L193.6347656,136.6291504 C193.6347656,136.9162598 193.7099609,137.0939941 193.8603516,137.1623535 C194.0107422,137.2307129 194.472168,137.2648926 195.2446289,137.2648926 C196.3110352,137.2648926 196.9467773,137.2067871 197.1518555,137.0905762 C197.3569336,136.9743652 197.4953613,136.7094727 197.5671387,136.2958984 C197.638916,135.8823242 197.6918945,135.0534668 197.7260742,133.8093262 Z M190.8764648,123.0632324 L187.7080078,123.0632324 L187.7080078,125.1960449 L190.3330078,125.1960449 L190.3330078,139.1413574 L188.6308594,139.1413574 L188.6308594,138.1774902 L183.4423828,138.1774902 L183.4423828,139.1413574 L181.78125,139.1413574 L181.78125,125.1960449 L184.3447266,125.1960449 L184.3447266,123.0632324 L181.2788086,123.0632324 L181.2788086,121.361084 L190.8764648,121.361084 Z M186.3852539,125.1960449 L186.3852539,123.0632324 L185.6879883,123.0632324 L185.6879883,125.1960449 Z M188.6308594,130.1384277 L188.6308594,126.9187012 L187.7080078,126.9187012 L187.7080078,129.6359863 C187.7080078,129.9709473 187.8754883,130.1384277 188.2104492,130.1384277 Z M184.3037109,126.9187012 L183.4423828,126.9187012 L183.4423828,131.2663574 C184.0576172,130.3776855 184.3447266,128.9284668 184.3037109,126.9187012 Z M188.6308594,136.4753418 L188.6308594,131.7995605 L187.6464844,131.7995605 C187.2568359,131.7995605 186.9492188,131.6799316 186.7236328,131.4406738 C186.4980469,131.201416 186.3852539,130.8937988 186.3852539,130.5178223 L186.3852539,126.9187012 L185.6674805,126.9187012 C185.6674805,129.557373 185.2265625,131.4714355 184.3447266,132.6608887 L183.4423828,131.7072754 L183.4423828,136.4753418 Z M188.0668945,134.814209 L184.0166016,134.814209 L184.0166016,133.2453613 L188.0668945,133.2453613 Z" style="fill:rgb(117,117,117);stroke:none" clip-path="url(#clip5)" />
<clipPath id="clip6"><path d="M88,60 L206,60 L206,173 L88,173 L88,60 Z" /></clipPath>
<path d="M156.1567383,165.8234863 L137.8432617,165.8234863 L137.8432617,164.4494629 L140.1606445,164.4494629 L140.1606445,155.5695801 L145.2568359,155.5695801 L145.5131836,154.6057129 L138.0585938,154.6057129 L138.0585938,153.1599121 L145.8720703,153.1599121 L146.0566406,152.2575684 L138.7661133,152.2575684 L138.7661133,148.1765137 L155.1518555,148.1765137 L155.1518555,152.2575684 L148.0048828,152.2575684 L147.8408203,153.1599121 L155.8183594,153.1599121 L155.8183594,154.6057129 L147.5024414,154.6057129 L147.2973633,155.5695801 L153.8085938,155.5695801 L153.8085938,164.4494629 L156.1567383,164.4494629 Z M153.3266602,150.8835449 L153.3266602,149.6325684 L150.3017578,149.6325684 L150.3017578,150.8835449 Z M148.5380859,150.8835449 L148.5380859,149.6325684 L145.4516602,149.6325684 L145.4516602,150.8835449 Z M143.6674805,150.8835449 L143.6674805,149.6325684 L140.6425781,149.6325684 L140.6425781,150.8835449 Z M151.9628906,157.8151855 L151.9628906,156.8513184 L142.0678711,156.8513184 L142.0678711,157.8151855 Z M151.9628906,159.9377441 L151.9628906,158.973877 L142.0678711,158.973877 L142.0678711,159.9377441 Z M151.9628906,162.142334 L151.9628906,161.1374512 L142.0678711,161.1374512 L142.0678711,162.142334 Z M151.9628906,164.4494629 L151.9628906,163.342041 L142.0678711,163.342041 L142.0678711,164.4494629 Z" style="fill:rgb(117,117,117);stroke:none" clip-path="url(#clip6)" />
<clipPath id="clip7"><path d="M36,294 L265,294 L265,343 L36,343 L36,294 Z" /></clipPath>
<path d="M47,297 C42.5817184,297 39,300.5817261 39,305 L39,331 C39,335.4182739 42.5817184,339 47,339 L253,339 C257.4182739,339 261,335.4182739 261,331 L261,305 C261,300.5817261 257.4182739,297 253,297 Z" style="fill:none;stroke:rgb(158,158,158);stroke-width:4" clip-path="url(#clip7)" />
<clipPath id="clip8"><path d="M52,305 L249,305 L249,332 L52,332 L52,305 Z" /></clipPath>
<path d="M70.2129059,315.7731934 L69.3247223,317.076416 C66.6518707,315.8423462 64.3912888,314.450592 62.542984,312.901123 C60.8496246,314.2790527 58.6748199,315.6431274 56.0185699,316.9934082 L54.9975739,315.7565918 C58.1961365,314.2901001 60.6199646,312.6908264 62.2690582,310.9587402 L63.8877106,311.5397949 C63.7936325,311.6504517 63.7023239,311.7528381 63.6137848,311.8469238 C65.235199,313.2303772 67.434906,314.5391235 70.2129059,315.7731934 Z M66.4692535,317.2507324 L58.6997223,317.2507324 L58.6997223,315.7897949 L66.4692535,315.7897949 Z M68.1045074,325.958252 L66.5190582,325.958252 L66.5190582,325.0866699 L58.5835114,325.0866699 L58.5835114,325.958252 L56.964859,325.958252 L56.964859,319.052002 L68.1045074,319.052002 Z M66.5190582,323.5925293 L66.5190582,320.5129395 L58.5835114,320.5129395 L58.5835114,323.5925293 Z M85.2207184,311.4401855 C84.3906403,312.5248108 83.5799255,313.4019165 82.7885895,314.0715332 L81.2446442,313.3410645 C82.0138474,312.737854 82.7996521,311.9437561 83.602066,310.9587402 Z M78.6548004,313.473877 L77.0278473,314.0217285 C76.3305817,313.1141663 75.5752106,312.2868652 74.761734,311.5397949 L76.3471832,310.9919434 C77.188324,311.7002563 77.9575348,312.5275879 78.6548004,313.473877 Z M87.4121246,320.3635254 L83.5522614,320.3635254 L83.5522614,325.916748 L81.9917145,325.916748 L81.9917145,320.3635254 L78.0322418,320.3635254 C77.683609,322.9588928 76.1534958,324.8154907 73.4419098,325.9333496 L72.4873199,324.5969238 C73.5055466,324.3146973 74.3909607,323.7765198 75.1435699,322.9824219 C75.8961716,322.1882935 76.3305817,321.3153381 76.4467926,320.3635254 L72.636734,320.3635254 L72.636734,318.8693848 L76.5796051,318.8693848 L76.5796051,315.822998 L73.2177887,315.822998 L73.2177887,314.3620605 L86.7812653,314.3620605 L86.7812653,315.822998 L83.5522614,315.822998 L83.5522614,318.8693848 L87.4121246,318.8693848 Z M81.9917145,318.8693848 L81.9917145,315.822998 L78.1484528,315.822998 L78.1484528,318.8693848 Z M104.1049957,324.2067871 C104.1049957,324.6660767 103.9389801,325.0672913 103.6069489,325.4104004 C103.2749176,325.753479 102.6910934,325.9250488 101.855484,325.9250488 C101.4736481,325.9250488 101.0779724,325.9111938 100.6684723,325.8835449 L100.2119293,324.3894043 L102.1128082,324.3728027 C102.2456207,324.3728027 102.3645935,324.3160706 102.4697418,324.2026367 C102.5748825,324.0891724 102.6274567,323.9660645 102.6274567,323.833252 L102.6274567,320.7702637 L98.4438629,320.7702637 L98.4438629,325.5266113 L96.999527,325.5266113 L96.999527,320.7702637 L92.8823395,320.7702637 C92.6941833,322.9561157 92.1906052,324.6965332 91.3715973,325.9914551 L90.0268707,325.119873 C90.5027771,324.4115295 90.8707809,323.4749146 91.1308746,322.3100586 C91.3909607,321.1451721 91.5210114,320.0314941 91.5210114,318.9689941 L91.5210114,311.4401855 L104.1049957,311.4401855 Z M102.6274567,315.3830566 L102.6274567,312.9177246 L98.4438629,312.9177246 L98.4438629,315.3830566 Z M96.999527,315.3830566 L96.999527,312.9177246 L93.0317535,312.9177246 L93.0317535,315.3830566 Z M102.6274567,319.3425293 L102.6274567,316.7941895 L98.4438629,316.7941895 L98.4438629,319.3425293 Z M96.999527,319.3425293 L96.999527,316.7941895 L93.0317535,316.7941895 L93.0317535,319.3425293 Z M121.5034332,318.3879395 L110.4882965,318.3879395 C110.4329529,321.9627991 109.7827301,324.5249634 108.5376129,326.0744629 L107.358902,324.970459 C107.8458786,324.3119202 108.2346344,323.4929199 108.5251617,322.5134277 C108.8156891,321.5339355 108.9609528,320.1477051 108.9609528,318.3547363 L108.9609528,312.7932129 L114.5224762,312.7932129 C114.2845154,312.3228149 113.999527,311.8247681 113.6674957,311.2990723 L115.2363434,310.892334 C115.4466248,311.2409668 115.7620544,311.8745728 116.1826324,312.7932129 L121.5034332,312.7932129 Z M119.992691,316.9436035 L119.992691,314.2375488 L110.5048981,314.2375488 L110.5048981,316.9436035 Z M139.9477692,322.0983887 C139.9477692,323.437561 139.8523102,324.3271484 139.6613922,324.7670898 C139.4704742,325.2070313 139.2173004,325.487854 138.9018707,325.6096191 C138.586441,325.7313538 137.7646637,325.7922363 136.4365387,325.7922363 C135.4127808,325.7922363 134.7694702,325.7410278 134.5066071,325.6386719 C134.2437439,325.5362854 134.0417633,325.3730469 133.90065,325.1489258 C133.7595367,324.9248047 133.6889801,324.6384277 133.6889801,324.2897949 L133.6889801,316.6696777 L137.8891754,316.6696777 L137.8891754,312.9343262 L133.539566,312.9343262 L133.539566,311.4899902 L139.3501129,311.4899902 L139.3501129,318.0974121 L135.1582184,318.0974121 L135.1582184,323.8498535 C135.1582184,324.0822754 135.2190857,324.2261353 135.3408356,324.2814941 C135.4625854,324.3368225 135.8361206,324.364502 136.461441,324.364502 C137.3247223,324.364502 137.8393707,324.3174438 138.0053864,324.2233887 C138.171402,324.129303 138.2834625,323.914856 138.341568,323.5800781 C138.3996735,323.2452698 138.4425659,322.5742798 138.4702301,321.5671387 Z M132.9253082,312.8679199 L130.3603668,312.8679199 L130.3603668,314.5944824 L132.4853668,314.5944824 L132.4853668,325.8835449 L131.1074371,325.8835449 L131.1074371,325.1032715 L126.9072418,325.1032715 L126.9072418,325.8835449 L125.5625153,325.8835449 L125.5625153,314.5944824 L127.6377106,314.5944824 L127.6377106,312.8679199 L125.155777,312.8679199 L125.155777,311.4899902 L132.9253082,311.4899902 Z M129.289566,314.5944824 L129.289566,312.8679199 L128.7251129,312.8679199 L128.7251129,314.5944824 Z M131.1074371,318.595459 L131.1074371,315.9890137 L130.3603668,315.9890137 L130.3603668,318.1887207 C130.3603668,318.4598694 130.4959412,318.595459 130.7671051,318.595459 Z M127.6045074,315.9890137 L126.9072418,315.9890137 L126.9072418,319.5085449 C127.4052887,318.7891235 127.6377106,317.6159668 127.6045074,315.9890137 Z M131.1074371,323.7253418 L131.1074371,319.9401855 L130.3105621,319.9401855 C129.9951324,319.9401855 129.746109,319.8433228 129.5634918,319.6496582 C129.3808746,319.4559631 129.289566,319.2069397 129.289566,318.9025879 L129.289566,315.9890137 L128.7085114,315.9890137 C128.7085114,318.125061 128.3515778,319.6745605 127.6377106,320.6374512 L126.9072418,319.8654785 L126.9072418,323.7253418 Z M130.6508942,322.3806152 L127.3720856,322.3806152 L127.3720856,321.1105957 L130.6508942,321.1105957 Z M157.4707184,325.6013184 L142.6455231,325.6013184 L142.6455231,324.4890137 L144.5214996,324.4890137 L144.5214996,317.3005371 L148.6469879,317.3005371 L148.8545074,316.5202637 L142.8198395,316.5202637 L142.8198395,315.3498535 L149.1450348,315.3498535 L149.2944489,314.6193848 L143.3925934,314.6193848 L143.3925934,311.3156738 L156.6572418,311.3156738 L156.6572418,314.6193848 L150.8715973,314.6193848 L150.7387848,315.3498535 L157.1967926,315.3498535 L157.1967926,316.5202637 L150.464859,316.5202637 L150.2988434,317.3005371 L155.5698395,317.3005371 L155.5698395,324.4890137 L157.4707184,324.4890137 Z M155.1797028,313.5070801 L155.1797028,312.4943848 L152.7309723,312.4943848 L152.7309723,313.5070801 Z M151.3032379,313.5070801 L151.3032379,312.4943848 L148.8047028,312.4943848 L148.8047028,313.5070801 Z M147.3603668,313.5070801 L147.3603668,312.4943848 L144.9116364,312.4943848 L144.9116364,313.5070801 Z M154.0756989,319.1184082 L154.0756989,318.3381348 L146.0654449,318.3381348 L146.0654449,319.1184082 Z M154.0756989,320.8366699 L154.0756989,320.0563965 L146.0654449,320.0563965 L146.0654449,320.8366699 Z M154.0756989,322.6213379 L154.0756989,321.8078613 L146.0654449,321.8078613 L146.0654449,322.6213379 Z M154.0756989,324.4890137 L154.0756989,323.5925293 L146.0654449,323.5925293 L146.0654449,324.4890137 Z M174.6865387,317.1843262 C174.6533356,318.7171936 174.5481873,320.3067932 174.371109,321.953125 C174.1940308,323.5994263 173.9643707,324.5982971 173.6821442,324.949707 C173.3999176,325.3010864 173.0817261,325.5598145 172.7275543,325.7258301 C172.3733826,325.8918457 171.4630737,325.9748535 169.9965973,325.9748535 C169.625824,325.9748535 169.2301636,325.9692993 168.8095856,325.958252 L168.2451324,324.3894043 C168.7376404,324.4115295 169.7973785,324.4226074 171.4243317,324.4226074 C171.6456909,324.4226074 171.8559723,324.3603516 172.055191,324.2358398 C172.2544098,324.1113281 172.3872223,323.9370117 172.4536285,323.7128906 C172.5200348,323.4887695 172.6196442,322.8800354 172.7524567,321.8867188 C172.8852692,320.8933716 172.9765778,319.807373 173.0263824,318.6286621 L162.1440582,318.6286621 L162.1440582,311.0998535 L163.7378082,311.0998535 L163.7378082,313.3078613 L173.5991364,313.3078613 L173.5991364,314.7687988 L163.7378082,314.7687988 L163.7378082,317.1843262 Z M171.6650543,322.2312012 L160.1850739,322.2312012 L160.1850739,320.7702637 L171.6650543,320.7702637 Z M192.7075348,324.6633301 L191.6865387,325.916748 C190.4580231,324.2676392 189.6528473,322.3031311 189.2710114,320.0231934 C188.8172302,322.3584595 187.9733276,324.3285217 186.7392731,325.9333496 L185.6518707,324.8127441 C187.195816,322.8371582 188.0673981,320.2030334 188.2666168,316.9104004 L186.058609,316.9104004 L186.058609,315.5324707 L188.3330231,315.5324707 C188.3717651,313.2469788 188.3911285,311.750061 188.3911285,311.041748 L189.852066,311.041748 L189.7607574,315.5324707 L192.4502106,315.5324707 L192.4502106,316.9104004 L189.8188629,316.9104004 C190.1730347,320.0148926 191.1359253,322.5991821 192.7075348,324.6633301 Z M185.9257965,321.9572754 L177.6416168,321.9572754 L177.6416168,320.6540527 L181.0449371,320.6540527 L181.0449371,319.6330566 L178.0317535,319.6330566 L178.0317535,318.3215332 L181.0449371,318.3215332 L181.0449371,317.3171387 L178.0649567,317.3171387 L178.0649567,311.3820801 L185.4941559,311.3820801 L185.4941559,317.3171387 L182.4726715,317.3171387 L182.4726715,318.3215332 L185.4941559,318.3215332 L185.4941559,319.6330566 L182.4726715,319.6330566 L182.4726715,320.6540527 L185.9257965,320.6540527 Z M184.273941,316.0471191 L184.273941,312.6604004 L182.4726715,312.6604004 L182.4726715,316.0471191 Z M183.9834137,313.2414551 C183.9280701,314.2375488 183.7869568,315.098053 183.5600739,315.822998 L182.796402,315.5822754 C182.9956207,314.7466431 183.1201324,313.9027405 183.1699371,313.0505371 Z M181.0449371,316.0471191 L181.0449371,312.6604004 L179.2934723,312.6604004 L179.2934723,316.0471191 Z M180.7544098,315.5490723 L179.9243317,315.7897949 C179.8855896,314.9873657 179.7610779,314.1434631 179.5507965,313.2580566 L180.3310699,313.017334 C180.5690308,313.875061 180.710144,314.7189941 180.7544098,315.5490723 Z M192.433609,314.4782715 L191.2133942,315.026123 C190.9533081,314.2236938 190.5603943,313.4240723 190.0346832,312.6271973 L191.1884918,312.0627441 C191.7197418,312.8817444 192.1347809,313.6869202 192.433609,314.4782715 Z M179.7500153,322.6047363 C179.6282654,323.6395569 179.2824097,324.779541 178.7124176,326.0246582 L177.4589996,325.3771973 C178.0013123,324.2316895 178.3278198,323.2051392 178.4384918,322.2976074 Z M185.527359,324.5056152 L184.3071442,324.8625488 C184.2241364,324.1874084 184.0193787,323.4348145 183.6928864,322.6047363 L184.9380035,322.3308105 C185.2202301,323.0612793 185.416687,323.7861938 185.527359,324.5056152 Z M183.593277,325.3605957 L182.3315582,325.6013184 C182.2817535,324.5609436 182.1074371,323.6008301 181.808609,322.7209473 L183.0454254,322.4885254 C183.327652,323.4348145 183.5102692,324.3921509 183.593277,325.3605957 Z M181.5180817,325.7341309 L180.1733551,325.8835449 C180.1899567,325.6289673 180.1982574,325.3716431 180.1982574,325.1115723 C180.1982574,324.3091431 180.140152,323.5316467 180.023941,322.7790527 L181.3022614,322.6047363 C181.468277,323.4956665 181.5512848,324.3063965 181.5512848,325.0368652 C181.5512848,325.2803345 181.5402222,325.5127563 181.5180817,325.7341309 Z M199.2485504,313.8308105 L197.9702301,314.7023926 C197.4721832,313.8667603 196.7085114,312.9149475 195.6792145,311.8469238 L196.8662262,310.9919434 C197.6188354,311.7002563 198.4129333,312.6465454 199.2485504,313.8308105 Z M210.1474762,325.0866699 L209.0185699,326.107666 C206.9765778,324.159729 205.5433044,321.7801819 204.7187653,318.9689941 C203.9938354,321.6916504 202.5439606,324.0490723 200.3691559,326.0412598 L199.2485504,325.0866699 C200.5545349,323.8526001 201.5672302,322.5646057 202.2866364,321.2226563 C203.0060425,319.8806763 203.4570465,318.4833984 203.6396637,317.0307617 C203.8222809,315.578125 203.9329529,313.6288147 203.9716949,311.1828613 L205.4658356,311.1828613 C205.4436951,311.9188538 205.4326324,312.5829163 205.4326324,313.1750488 C205.4326324,315.1118774 205.6083374,316.7167053 205.9597321,317.989502 C206.3111267,319.2622681 206.8257751,320.5184631 207.5036774,321.7580566 C208.1815796,322.9976196 209.0628357,324.1071777 210.1474762,325.0866699 Z M200.6762848,322.4719238 C199.7355347,323.4458618 198.7256012,324.3395996 197.6464996,325.1530762 L196.8662262,323.833252 C196.9658356,323.7059631 197.0156403,323.5731506 197.0156403,323.4348145 L197.0156403,317.0100098 L195.164566,317.0100098 L195.164566,315.4992676 L198.5346832,315.4992676 L198.5346832,322.5383301 C199.0216675,322.1122131 199.5031128,321.6639709 199.9790192,321.1936035 Z M227.4795074,322.0983887 C227.4794922,323.437561 227.3840332,324.3271484 227.1931305,324.7670898 C227.0021973,325.2070313 226.7490234,325.487854 226.433609,325.6096191 C226.1181641,325.7313538 225.2963867,325.7922363 223.968277,325.7922363 C222.944519,325.7922363 222.3012085,325.7410278 222.0383453,325.6386719 C221.7754822,325.5362854 221.5735016,325.3730469 221.4323883,325.1489258 C221.291275,324.9248047 221.2207184,324.6384277 221.2207184,324.2897949 L221.2207184,316.6696777 L225.4209137,316.6696777 L225.4209137,312.9343262 L221.0713043,312.9343262 L221.0713043,311.4899902 L226.8818512,311.4899902 L226.8818512,318.0974121 L222.6899567,318.0974121 L222.6899567,323.8498535 C222.6899567,324.0822754 222.750824,324.2261353 222.8725739,324.2814941 C222.9943237,324.3368225 223.3678589,324.364502 223.9931793,324.364502 C224.8564453,324.364502 225.3710938,324.3174438 225.5371246,324.2233887 C225.703125,324.129303 225.8151855,323.914856 225.8733063,323.5800781 C225.9313965,323.2452698 225.9743042,322.5742798 226.0019684,321.5671387 Z M220.4570465,312.8679199 L217.8921051,312.8679199 L217.8921051,314.5944824 L220.0171051,314.5944824 L220.0171051,325.8835449 L218.6391754,325.8835449 L218.6391754,325.1032715 L214.4389801,325.1032715 L214.4389801,325.8835449 L213.0942535,325.8835449 L213.0942535,314.5944824 L215.1694489,314.5944824 L215.1694489,312.8679199 L212.6875153,312.8679199 L212.6875153,311.4899902 L220.4570465,311.4899902 Z M216.8213043,314.5944824 L216.8213043,312.8679199 L216.2568512,312.8679199 L216.2568512,314.5944824 Z M218.6391754,318.595459 L218.6391754,315.9890137 L217.8921051,315.9890137 L217.8921051,318.1887207 C217.8921051,318.4598694 218.0276794,318.595459 218.2988434,318.595459 Z M215.1362457,315.9890137 L214.4389801,315.9890137 L214.4389801,319.5085449 C214.937027,318.7891235 215.1694489,317.6159668 215.1362457,315.9890137 Z M218.6391754,323.7253418 L218.6391754,319.9401855 L217.8423004,319.9401855 C217.5268707,319.9401855 217.2778473,319.8433228 217.0952301,319.6496582 C216.9126129,319.4559631 216.8213043,319.2069397 216.8213043,318.9025879 L216.8213043,315.9890137 L216.2402496,315.9890137 C216.2402496,318.125061 215.883316,319.6745605 215.1694489,320.6374512 L214.4389801,319.8654785 L214.4389801,323.7253418 Z M218.1826324,322.3806152 L214.9038239,322.3806152 L214.9038239,321.1105957 L218.1826324,321.1105957 Z M245.0024567,325.6013184 L230.1772614,325.6013184 L230.1772614,324.4890137 L232.0532379,324.4890137 L232.0532379,317.3005371 L236.1787262,317.3005371 L236.3862457,316.5202637 L230.3515778,316.5202637 L230.3515778,315.3498535 L236.6767731,315.3498535 L236.8261871,314.6193848 L230.9243317,314.6193848 L230.9243317,311.3156738 L244.1889801,311.3156738 L244.1889801,314.6193848 L238.4033356,314.6193848 L238.2705231,315.3498535 L244.7285309,315.3498535 L244.7285309,316.5202637 L237.9965973,316.5202637 L237.8305817,317.3005371 L243.1015778,317.3005371 L243.1015778,324.4890137 L245.0024567,324.4890137 Z M242.711441,313.5070801 L242.711441,312.4943848 L240.2627106,312.4943848 L240.2627106,313.5070801 Z M238.8349762,313.5070801 L238.8349762,312.4943848 L236.336441,312.4943848 L236.336441,313.5070801 Z M234.8921051,313.5070801 L234.8921051,312.4943848 L232.4433746,312.4943848 L232.4433746,313.5070801 Z M241.6074371,319.1184082 L241.6074371,318.3381348 L233.5971832,318.3381348 L233.5971832,319.1184082 Z M241.6074371,320.8366699 L241.6074371,320.0563965 L233.5971832,320.0563965 L233.5971832,320.8366699 Z M241.6074371,322.6213379 L241.6074371,321.8078613 L233.5971832,321.8078613 L233.5971832,322.6213379 Z M241.6074371,324.4890137 L241.6074371,323.5925293 L233.5971832,323.5925293 L233.5971832,324.4890137 Z" style="fill:rgb(3,3,3);stroke:none" clip-path="url(#clip8)" />
<clipPath id="clip9"><path d="M12,398 L293,398 L293,447 L12,447 L12,398 Z" /></clipPath>
<path d="M23,401 C18.5817261,401 15,404.5817261 15,409 L15,435 C15,439.4182739 18.5817261,443 23,443 L281,443 C285.4182739,443 289,439.4182739 289,435 L289,409 C289,404.5817261 285.4182739,401 281,401 Z" style="fill:none;stroke:rgb(127,127,127);stroke-width:4" clip-path="url(#clip9)" />
<clipPath id="clip10"><path d="M28,409 L277,409 L277,436 L28,436 L28,409 Z" /></clipPath>
<path d="M34.4152985,417.4572754 L33.1950836,418.494873 C32.6748962,417.7367249 31.8807907,416.9204712 30.8127594,416.0461426 L31.966568,414.9919434 C32.874115,415.7556152 33.690361,416.5773926 34.4152985,417.4572754 Z M45.8288727,423.0021973 L44.8576813,424.2722168 C42.6054001,422.8555298 41.1361618,421.3088379 40.4499664,419.6320801 L39.4538727,419.6320801 C38.5241852,421.3752441 37.0549469,422.8887329 35.0461578,424.1726074 L34.0749664,422.9523926 C35.6521149,422.050354 36.8612595,420.9436035 37.7024078,419.6320801 L34.4152985,419.6320801 L34.4152985,418.2541504 L38.3996735,418.2541504 C38.6265564,417.6122131 38.7842712,417.1307678 38.872818,416.8098145 L35.079361,416.8098145 L35.079361,415.4318848 L44.8576813,415.4318848 L44.8576813,416.8098145 L40.541275,416.8098145 C40.3586578,417.4074707 40.1926422,417.888916 40.0432281,418.2541504 L45.5051422,418.2541504 L45.5051422,419.6320801 L42.1184235,419.6320801 C42.8212204,420.8661194 44.0580368,421.989502 45.8288727,423.0021973 Z M34.4485016,421.3669434 L33.4690094,422.6286621 C32.744072,421.8871155 31.8420486,421.1621704 30.7629547,420.4538574 L31.6843414,419.2419434 C32.6638336,419.8285217 33.5852203,420.5368652 34.4485016,421.3669434 Z M39.6530914,428.7629395 C39.6530914,429.1115417 39.4981384,429.4020996 39.1882477,429.6345215 C38.8783493,429.8669434 38.3886032,429.9831543 37.7190094,429.9831543 C37.4976501,429.9831543 37.2486267,429.9720764 36.9719391,429.9499512 L36.5236969,428.5056152 C36.9996033,428.5277405 37.4589157,428.5388184 37.9016266,428.5388184 C37.9735641,428.5388184 38.0399704,428.5042114 38.1008453,428.4350586 C38.1617126,428.3658752 38.1921539,428.2953186 38.1921539,428.2233887 L38.1921539,422.0974121 L39.6530914,422.0974121 Z M42.7326813,428.5056152 L41.2717438,429.0700684 C41.072525,427.6976624 40.6630173,426.1288147 40.0432281,424.3635254 L41.3713531,423.7990723 C41.980072,425.3430176 42.4338531,426.9118652 42.7326813,428.5056152 Z M45.4719391,428.2731934 L44.0442047,428.895752 C43.5848923,427.2854004 43.0287399,425.7857056 42.3757477,424.3967285 L43.7204742,423.8654785 C44.3291931,425.0275879 44.9130173,426.4968262 45.4719391,428.2731934 Z M34.3488922,424.8034668 C33.861908,426.3363342 33.0345993,428.1044006 31.8669586,430.107666 L30.6467438,429.1032715 C31.7479782,427.2438965 32.553154,425.5145569 33.0622711,423.9152832 Z M37.5280914,424.5959473 C36.8197556,426.4829712 36.0837555,427.9411621 35.3200836,428.970459 L34.0417633,428.0490723 C34.8552399,426.9976196 35.5525055,425.6501465 36.1335602,424.0065918 Z M55.9060211,417.4904785 C55.8949509,419.9530334 55.8340759,422.3588867 55.7234039,424.7080078 C55.6127243,427.0571289 55.4937439,428.4143066 55.3664703,428.779541 C55.2391891,429.1447449 55.0122986,429.4325256 54.6858063,429.6428223 C54.3593063,429.8530884 53.8391266,429.958252 53.1252594,429.958252 C52.7710876,429.958252 52.4169235,429.944397 52.0627594,429.916748 L51.6394196,428.4226074 C52.0987244,428.4558105 52.475029,428.4724121 52.7683258,428.4724121 C53.482193,428.4724121 53.8958435,428.2593384 54.0092926,427.833252 C54.1227341,427.407135 54.2430954,424.4465332 54.3703766,418.951416 L52.3864899,418.951416 C52.2260056,423.7437134 51.2437439,427.4403381 49.4397125,430.0412598 L48.1530914,429.1364746 C49.9460526,426.491272 50.8508377,423.0962524 50.8674469,418.951416 L48.5598297,418.951416 L48.5598297,417.4904785 L50.9089508,417.4904785 L50.9753571,415.0583496 L52.4860992,415.0583496 L52.419693,417.4904785 Z M62.7707672,429.9665527 L61.2766266,429.9665527 L61.2766266,428.779541 L58.5041656,428.779541 L58.5041656,429.9499512 L57.0266266,429.9499512 L57.0266266,416.4030762 L62.7707672,416.4030762 Z M61.2766266,427.2687988 L61.2766266,417.8972168 L58.5041656,417.8972168 L58.5041656,427.2687988 Z M79.8205719,428.2565918 C79.8205719,428.7158813 79.6545563,429.1170959 79.322525,429.4602051 C78.9904938,429.8032837 78.4066696,429.974823 77.5710602,429.9748535 C77.1892242,429.974823 76.7935486,429.9609985 76.3840485,429.9333496 L75.9275055,428.439209 L77.8283844,428.4226074 C77.9611969,428.4226074 78.0801697,428.3658752 78.185318,428.2524414 C78.2904587,428.1389771 78.3430328,428.0158691 78.3430328,427.8830566 L78.3430328,424.8200684 L74.1594391,424.8200684 L74.1594391,429.576416 L72.7151031,429.576416 L72.7151031,424.8200684 L68.5979156,424.8200684 C68.4097595,427.0059204 67.9061813,428.7463379 67.0871735,430.0412598 L65.7424469,429.1696777 C66.2183533,428.4613342 66.5863571,427.5247192 66.8464508,426.3598633 C67.1065369,425.1949768 67.2365875,424.0812988 67.2365875,423.0187988 L67.2365875,415.4899902 L79.8205719,415.4899902 Z M78.3430328,419.4328613 L78.3430328,416.9675293 L74.1594391,416.9675293 L74.1594391,419.4328613 Z M72.7151031,419.4328613 L72.7151031,416.9675293 L68.7473297,416.9675293 L68.7473297,419.4328613 Z M78.3430328,423.392334 L78.3430328,420.8439941 L74.1594391,420.8439941 L74.1594391,423.392334 Z M72.7151031,423.392334 L72.7151031,420.8439941 L68.7473297,420.8439941 L68.7473297,423.392334 Z M97.2190094,422.4377441 L86.2038727,422.4377441 C86.1485291,426.0126038 85.4983063,428.5747681 84.2531891,430.1242676 L83.0744781,429.0202637 C83.5614548,428.3617249 83.9502106,427.5427246 84.2407379,426.5632324 C84.5312653,425.5837402 84.6765289,424.1975098 84.6765289,422.404541 L84.6765289,416.8430176 L90.2380524,416.8430176 C90.0000916,416.3726196 89.7151031,415.8745728 89.3830719,415.348877 L90.9519196,414.9421387 C91.1622009,415.2907715 91.4776306,415.9243774 91.8982086,416.8430176 L97.2190094,416.8430176 Z M95.7082672,420.9934082 L95.7082672,418.2873535 L86.2204742,418.2873535 L86.2204742,420.9934082 Z M114.2854156,429.9499512 L112.7248688,429.9499512 L112.7248688,429.0866699 L103.8015289,429.0866699 L103.8015289,429.9499512 L102.2492828,429.9499512 L102.2492828,416.9509277 L106.3498688,416.9509277 C106.6708298,416.441803 106.9530563,415.7998657 107.1965485,415.0251465 L108.8484039,415.2990723 C108.6713181,415.9133301 108.4222946,416.4639282 108.1013336,416.9509277 L114.2854156,416.9509277 Z M112.7248688,420.4123535 L112.7248688,418.4284668 L103.8015289,418.4284668 L103.8015289,420.4123535 Z M112.7248688,423.9318848 L112.7248688,421.8483887 L103.8015289,421.8483887 L103.8015289,423.9318848 Z M112.7248688,427.6257324 L112.7248688,425.3596191 L103.8015289,425.3596191 L103.8015289,427.6257324 Z M132.7795563,420.6032715 L131.2522125,420.6032715 L131.2522125,418.0383301 L120.3366852,418.0383301 L120.3366852,420.6032715 L118.7346344,420.6032715 L118.7346344,416.6271973 L124.9768219,416.6271973 C124.7776031,416.1955566 124.5285797,415.7583618 124.2297516,415.3156738 L125.7404938,414.9587402 C126.0835876,415.4014282 126.4017868,415.9575806 126.6950836,416.6271973 L132.7795563,416.6271973 Z M133.4270172,428.2731934 L133.0036774,429.7507324 C132.3949585,429.7617798 131.7530212,429.767334 131.0778961,429.767334 C128.6374664,429.767334 127.0118942,429.7078247 126.2011871,429.5888672 C125.3904724,429.4698792 124.6157379,429.2042542 123.8769684,428.7919922 C123.1381989,428.3796997 122.4450836,427.7253418 121.7976227,426.8288574 C121.1888962,427.9743652 120.4362946,429.0562134 119.5398102,430.0744629 L118.3278961,429.0866699 C120.0544586,427.4099121 121.1031189,425.2157288 121.4738922,422.5041504 L123.0178375,422.6950684 C122.9016266,423.5251465 122.7162399,424.3358459 122.4616852,425.1271973 C123.2419586,426.5438538 124.2103806,427.4486389 125.3669586,427.8415527 L125.3669586,421.3669434 L120.8098297,421.3669434 L120.8098297,419.9558105 L130.6877594,419.9558105 L130.6877594,421.3669434 L126.9109039,421.3669434 L126.9109039,423.5749512 L132.1486969,423.5749512 L132.1486969,424.986084 L126.9109039,424.986084 L126.9109039,428.1320801 C128.2500916,428.2538147 129.680603,428.3146973 131.2024078,428.3146973 C131.9494781,428.3146973 132.6910095,428.3008423 133.4270172,428.2731934 Z M144.9983063,419.4660645 L143.6203766,420.130127 C143.1223297,418.862854 142.2673492,417.3604126 141.0554352,415.6228027 L142.4001617,414.9089355 C143.4737244,416.4473267 144.3397827,417.9663696 144.9983063,419.4660645 Z M150.9167633,428.7629395 L150.094986,430.1408691 C147.2671814,429.0949707 145.0176697,427.8027954 143.3464508,426.2644043 C141.4760132,427.8304749 139.198822,429.0589905 136.5149078,429.9499512 L135.635025,428.630127 C138.252533,427.8609009 140.4384155,426.7541504 142.1926422,425.3098145 C140.1727905,423.1460571 138.6648102,420.160553 137.6687164,416.3532715 L139.1296539,415.8054199 C139.9099274,419.3138733 141.2989197,422.1306152 143.2966461,424.2556152 C145.2666931,422.2357483 146.6778259,419.438385 147.5300446,415.8635254 L148.9909821,416.3532715 C148.0225525,420.1218262 146.5118103,423.0962524 144.4587555,425.2766113 C146.030365,426.6711426 148.1830444,427.833252 150.9167633,428.7629395 Z M162.8615875,417.7810059 L161.4172516,418.2873535 C161.1239624,417.5402832 160.5899353,416.5884399 159.8152008,415.4318848 L161.2097321,414.8591309 C161.7797241,415.6394043 162.3303375,416.6133423 162.8615875,417.7810059 Z M167.8254547,420.130127 L159.2424469,420.130127 L159.2424469,418.7023926 L163.8825836,418.7023926 C164.624115,417.57901 165.3047791,416.3089905 165.9245758,414.892334 L167.3357086,415.3322754 C166.9096069,416.3283691 166.3147125,417.4517212 165.5510406,418.7023926 L167.8254547,418.7023926 Z M159.2590485,422.5622559 C158.484314,422.9385376 157.7704468,423.2373657 157.1174469,423.4587402 L157.1174469,428.779541 C157.1174469,429.5708618 156.4616852,429.9665527 155.1501617,429.9665527 C154.8955994,429.9665527 154.605072,429.9554749 154.2785797,429.9333496 L153.7473297,428.4890137 C154.0129547,428.500061 154.5525055,428.5056152 155.3659821,428.5056152 C155.5596619,428.5056152 155.6565094,428.4170532 155.6565094,428.2399902 L155.6565094,424.0231934 C155.1972046,424.2113342 154.5718689,424.4382324 153.7805328,424.7038574 L153.2907867,423.3591309 C154.4750366,422.966217 155.2636108,422.700592 155.6565094,422.5622559 L155.6565094,419.2751465 L153.3903961,419.2751465 L153.3903961,417.8308105 L155.6565094,417.8308105 L155.6565094,415.0915527 L157.1174469,415.0915527 L157.1174469,417.8308105 L158.6281891,417.8308105 L158.6281891,419.2751465 L157.1174469,419.2751465 L157.1174469,421.9645996 C157.6320953,421.798584 158.2103882,421.5550842 158.8523102,421.2341309 Z M167.4685211,424.7038574 L159.6657867,424.7038574 L159.6657867,423.2512207 L167.4685211,423.2512207 Z M168.2653961,429.5598145 L158.8357086,429.5598145 L158.8357086,428.0656738 L168.2653961,428.0656738 Z M185.9128571,426.8952637 C185.6914978,428.9759827 185.1104431,430.0163574 184.169693,430.0163574 C183.5111694,430.0163574 182.8720093,429.4906311 182.2522125,428.439209 C181.7929077,429.0479126 181.4304352,429.4961548 181.1648102,429.7839355 L180.1438141,428.6467285 C180.8632202,427.8609009 181.328064,427.2770996 181.5383453,426.8952637 C181.0070953,425.5560608 180.6916656,423.3231506 180.5920563,420.1965332 L170.8635406,420.1965332 L170.8635406,418.8684082 L175.0803375,418.8684082 L175.0803375,417.7644043 L171.8347321,417.7644043 L171.8347321,416.4362793 L175.0803375,416.4362793 L175.0803375,415.1330566 L176.5744781,415.1330566 L176.5744781,416.4362793 L179.7204742,416.4362793 L179.7204742,417.7644043 L176.5744781,417.7644043 L176.5744781,418.8684082 L180.5588531,418.8684082 C180.5809937,417.6177368 180.5920563,416.3726196 180.5920563,415.1330566 L182.1027985,415.1330566 C182.0585327,417.3078613 182.0474548,418.5529785 182.0695953,418.8684082 L185.7219391,418.8684082 L185.7219391,420.1965332 L182.1027985,420.1965332 C182.1636658,422.8029785 182.3047791,424.4243774 182.5261383,425.060791 C183.0795288,423.7935181 183.4641266,422.4958496 183.6799469,421.1677246 L185.0080719,421.7736816 C184.5985718,423.7769165 183.9760132,425.4951782 183.1403961,426.9284668 C183.217865,427.1221313 183.3714294,427.3988342 183.6010895,427.7585449 C183.8307495,428.1182251 183.9607849,428.3077698 183.9912262,428.3271484 C184.0216675,428.3464966 184.059021,428.3562012 184.1032867,428.3562012 C184.2028961,428.3562012 184.280365,428.2842407 184.3357086,428.1403809 C184.3910522,427.9964905 184.4851227,427.3435059 184.6179352,426.1813965 Z M185.2985992,417.7644043 L183.9870758,418.3952637 C183.5941772,417.5430298 183.1459351,416.8070374 182.6423492,416.1872559 L183.9206696,415.6228027 C184.4463806,416.2149048 184.9057007,416.928772 185.2985992,417.7644043 Z M180.0110016,423.1018066 L177.3630524,423.1018066 L177.3630524,423.8986816 L179.5710602,423.8986816 L179.5710602,425.060791 L177.3630524,425.060791 L177.3630524,425.9074707 L179.5710602,425.9074707 L179.5710602,427.0446777 L177.3630524,427.0446777 L177.3630524,427.9992676 L179.7868805,427.9992676 L179.7868805,429.236084 L173.810318,429.236084 L173.810318,429.9499512 L172.3742828,429.9499512 L172.3742828,424.7702637 C172.1972046,424.9639282 171.914978,425.251709 171.5276031,425.6335449 L170.6809235,424.3303223 C171.7932281,423.2622681 172.6537476,422.0033264 173.2624664,420.5534668 L174.6237946,420.9768066 C174.5297241,421.2424316 174.3996735,421.532959 174.2336578,421.8483887 L175.9104156,421.8483887 C175.8716736,421.6159668 175.7471619,421.2756348 175.5368805,420.8273926 L177.0559235,420.5700684 C177.1942749,420.8578186 177.3409119,421.2839355 177.4958649,421.8483887 L180.0110016,421.8483887 Z M175.9519196,423.8986816 L175.9519196,423.1018066 L173.810318,423.1018066 L173.810318,423.8986816 Z M175.9519196,425.9074707 L175.9519196,425.060791 L173.810318,425.060791 L173.810318,425.9074707 Z M175.9519196,427.9992676 L175.9519196,427.0612793 L173.810318,427.0612793 L173.810318,427.9992676 Z M202.1906891,419.8395996 L196.5295563,419.8395996 L196.5295563,415.4484863 L202.1906891,415.4484863 Z M200.7463531,418.5280762 L200.7463531,416.7434082 L198.0070953,416.7434082 L198.0070953,418.5280762 Z M194.9192047,419.8395996 L189.4406891,419.8395996 L189.4406891,415.4484863 L194.9192047,415.4484863 Z M193.4582672,418.5280762 L193.4582672,416.7434082 L190.9016266,416.7434082 L190.9016266,418.5280762 Z M203.4358063,424.6872559 L202.7717438,426.0983887 C202.5835876,426.0651855 202.3567047,426.0070801 202.0910797,425.9240723 L202.0910797,429.9831543 L200.6135406,429.9831543 L200.6135406,429.1696777 L198.0485992,429.1696777 L198.0485992,429.9831543 L196.5627594,429.9831543 L196.5627594,424.7536621 L199.4016266,424.7536621 C198.2395172,424.0010376 197.4066772,423.2622681 196.9030914,422.5373535 L194.8527985,422.5373535 C194.1057281,423.4061584 193.164978,424.144928 192.0305328,424.7536621 L195.1018219,424.7536621 L195.1018219,429.9831543 L193.657486,429.9831543 L193.657486,429.1696777 L191.0593414,429.1696777 L191.0593414,429.9831543 L189.6150055,429.9831543 L189.6150055,425.9240723 C189.4213257,426.0070801 189.216568,426.0707092 189.0007477,426.1149902 L188.2370758,424.8532715 C190.0466461,424.2334595 191.5435486,423.4614868 192.7277985,422.5373535 L188.5110016,422.5373535 L188.5110016,421.2175293 L194.0974274,421.2175293 C194.3187866,420.9353027 194.5567322,420.5562134 194.8112946,420.0803223 L196.3801422,420.2629395 C196.2528687,420.545166 196.0757751,420.8633423 195.8488922,421.2175293 L199.4929352,421.2175293 C199.2051697,421.0072327 198.8869781,420.8190918 198.5383453,420.6530762 L199.7419586,419.939209 C200.2344666,420.1826782 200.6550446,420.4732056 201.0036774,420.810791 L200.3396149,421.2175293 L203.0622711,421.2175293 L203.0622711,422.5373535 L198.8122711,422.5373535 C199.9135132,423.5776978 201.4546814,424.294342 203.4358063,424.6872559 Z M200.6135406,427.8415527 L200.6135406,426.0402832 L198.0485992,426.0402832 L198.0485992,427.8415527 Z M193.657486,427.8415527 L193.657486,426.0402832 L191.0593414,426.0402832 L191.0593414,427.8415527 Z M220.5188141,416.9841309 L213.2390289,416.9841309 C212.1267242,418.6055298 210.9646149,419.8119202 209.7527008,420.6032715 C212.2207947,420.5534668 214.5782166,420.3791504 216.8249664,420.0803223 C216.3047791,419.4660645 215.743103,418.876709 215.1399078,418.3122559 L216.4348297,417.4572754 C217.9455719,418.9348145 219.2543335,420.4981079 220.3610992,422.1472168 L219.1076813,423.0021973 C218.8143921,422.5760803 218.4159546,422.0254517 217.9123688,421.3503418 C214.0442047,421.7653809 210.5606384,422.0254517 207.4616852,422.1306152 L207.1379547,420.736084 C208.7261658,420.044342 210.1068726,418.7937012 211.2800446,416.9841309 L206.1335602,416.9841309 L206.1335602,415.5231934 L220.5188141,415.5231934 Z M220.7180328,429.5432129 L205.9260406,429.5432129 L205.9260406,428.0822754 L212.5749664,428.0822754 L212.5749664,425.6833496 L206.9636383,425.6833496 L206.9636383,424.2058105 L212.5749664,424.2058105 L212.5749664,422.3713379 L214.1023102,422.3713379 L214.1023102,424.2058105 L219.6970367,424.2058105 L219.6970367,425.6833496 L214.1023102,425.6833496 L214.1023102,428.0822754 L220.7180328,428.0822754 Z M227.126236,417.8640137 L225.8313141,418.611084 C225.3720093,417.7367249 224.6858063,416.7849121 223.7727203,415.7556152 L225.0344391,414.9421387 C225.8755798,415.8773499 226.5728455,416.8513184 227.126236,417.8640137 Z M237.8342438,428.6135254 C237.8342285,429.5210571 237.3168335,429.974823 236.2819977,429.9748535 C236.0053101,429.974823 235.4187012,429.9609985 234.5222321,429.9333496 L234.1320953,428.5056152 C235.2001343,428.5277405 235.8462067,428.5305176 236.0703278,428.513916 C236.2944489,428.4973145 236.4065094,428.3811035 236.4065094,428.1652832 L236.4065094,416.8762207 L229.7409821,416.8762207 L229.7409821,422.8444824 C229.7409668,424.8145142 229.6261597,426.2879028 229.3964996,427.2646484 C229.1668396,428.2413635 228.8389587,429.147522 228.4128571,429.9831543 L227.2092438,429.0534668 C227.9673767,427.4929199 228.3464508,425.4647522 228.3464508,422.9689941 L228.3464508,415.5065918 L237.8342438,415.5065918 Z M235.8254547,422.4543457 L230.2390289,422.4543457 L230.2390289,421.151123 L232.3972321,421.151123 L232.3972321,419.7565918 L230.5046539,419.7565918 L230.5046539,418.4284668 L232.3972321,418.4284668 L232.3972321,417.3078613 L233.7751617,417.3078613 L233.7751617,418.4284668 L235.6594391,418.4284668 L235.6594391,419.7565918 L233.7751617,419.7565918 L233.7751617,421.151123 L235.8254547,421.151123 Z M227.6159821,427.111084 C226.7527008,427.8968811 226.0609741,428.4530334 225.5407867,428.779541 L224.8601227,427.791748 C224.9541931,427.6146545 225.001236,427.3988342 225.001236,427.1442871 L225.001236,420.9436035 L223.3991852,420.9436035 L223.3991852,419.5158691 L226.4621735,419.5158691 L226.4621735,426.2810059 C226.7111969,426.0762329 226.9380798,425.8714905 227.1428375,425.666748 Z M235.4519196,427.6755371 L230.5046539,427.6755371 L230.5046539,423.392334 L235.4519196,423.392334 Z M234.1154938,426.3474121 L234.1154938,424.720459 L231.8493805,424.720459 L231.8493805,426.3474121 Z M254.8840485,428.2565918 C254.8840485,428.7158813 254.7180328,429.1170959 254.3860016,429.4602051 C254.0539703,429.8032837 253.4701538,429.974823 252.6345367,429.9748535 C252.2527008,429.974823 251.8570251,429.9609985 251.447525,429.9333496 L250.9909821,428.439209 L252.891861,428.4226074 C253.0246735,428.4226074 253.1436462,428.3658752 253.2487946,428.2524414 C253.3539429,428.1389771 253.4065094,428.0158691 253.4065094,427.8830566 L253.4065094,424.8200684 L249.2229156,424.8200684 L249.2229156,429.576416 L247.7785797,429.576416 L247.7785797,424.8200684 L243.6613922,424.8200684 C243.4732361,427.0059204 242.9696655,428.7463379 242.15065,430.0412598 L240.8059235,429.1696777 C241.2818298,428.4613342 241.6498413,427.5247192 241.9099274,426.3598633 C242.1700134,425.1949768 242.3000641,424.0812988 242.3000641,423.0187988 L242.3000641,415.4899902 L254.8840485,415.4899902 Z M253.4065094,419.4328613 L253.4065094,416.9675293 L249.2229156,416.9675293 L249.2229156,419.4328613 Z M247.7785797,419.4328613 L247.7785797,416.9675293 L243.8108063,416.9675293 L243.8108063,419.4328613 Z M253.4065094,423.392334 L253.4065094,420.8439941 L249.2229156,420.8439941 L249.2229156,423.392334 Z M247.7785797,423.392334 L247.7785797,420.8439941 L243.8108063,420.8439941 L243.8108063,423.392334 Z M263.6662598,427.1691895 C262.758728,427.9549866 261.812439,428.6633301 260.8273926,429.2941895 L259.9973145,428.2233887 C260.0858765,428.1016235 260.130127,427.9411621 260.130127,427.7419434 L260.130127,424.4631348 L258.536377,424.4631348 L258.536377,423.1018066 L260.130127,423.1018066 L260.130127,421.1262207 L259.5490723,421.1262207 L259.3166504,421.6242676 L258.1628418,420.5700684 C258.8933105,419.1367798 259.4743652,417.2608032 259.9060059,414.9421387 L261.3171387,415.2492676 C261.2396851,415.8247681 261.1289978,416.3615723 260.9851074,416.8596191 L263.392334,416.8596191 L263.392334,418.2043457 L260.6032715,418.2043457 C260.5092163,418.5585022 260.3459473,419.0869751 260.1135254,419.7897949 L262.8361816,419.7897949 L262.8361816,421.1262207 L261.5578613,421.1262207 L261.5578613,423.1018066 L263.3591309,423.1018066 L263.3591309,424.4631348 L261.5578613,424.4631348 L261.5578613,427.111084 C261.9452515,426.845459 262.4156189,426.4829712 262.9689941,426.0236816 Z M266.2644043,417.8308105 L265.0275879,418.611084 C264.6845093,417.7920532 264.0951538,416.8457642 263.2595215,415.7722168 L264.4797363,415.0251465 C265.105072,415.7998657 265.6999512,416.7351074 266.2644043,417.8308105 Z M273.2702637,417.9553223 L269.310791,417.9553223 C269.0230408,418.8462524 268.6384277,419.8202209 268.1569824,420.8771973 L269.310791,420.8771973 L269.310791,418.6442871 L270.7385254,418.6442871 L270.7385254,420.8771973 L272.9631348,420.8771973 L272.9631348,422.2385254 L270.7385254,422.2385254 L270.7385254,424.1560059 L273.2370605,424.1560059 L273.2370605,425.5007324 L270.7385254,425.5007324 L270.7385254,428.0158691 L269.310791,428.0158691 L269.310791,425.5007324 L266.3723145,425.5007324 L266.3723145,424.1560059 L269.310791,424.1560059 L269.310791,422.2385254 L266.5881348,422.2385254 L266.5881348,420.9934082 C267.1581421,419.8589478 267.567627,418.8462524 267.8166504,417.9553223 L266.5217285,417.9553223 L266.5217285,416.6437988 L268.2233887,416.6437988 C268.4447632,415.9686584 268.5914001,415.4346313 268.6633301,415.041748 L270.0910645,415.3322754 L269.7175293,416.6437988 L273.2702637,416.6437988 Z M273.3532715,428.439209 L272.9465332,429.8503418 C272.4263611,429.8613892 271.967041,429.8669434 271.5686035,429.8669434 C269.5819702,429.8669434 268.1722107,429.7285767 267.3393555,429.4519043 C266.5065308,429.1752014 265.8217163,428.6688538 265.2849121,427.9328613 C264.7924194,428.6190491 264.2307129,429.3439941 263.5998535,430.107666 L262.4460449,429.1364746 C263.1986694,428.3174438 263.8765564,427.4735413 264.4797363,426.6047363 L264.4797363,420.927002 L263.3591309,420.927002 L263.3591309,419.5656738 L265.9489746,419.5656738 L265.9489746,426.5549316 C266.2256775,427.0529785 266.6448669,427.4735413 267.206543,427.8166504 C267.7682495,428.159729 268.4198608,428.3534241 269.161377,428.3977051 C269.9029236,428.4419556 270.8326111,428.4641113 271.9504395,428.4641113 C272.4927673,428.4641113 272.9603882,428.4558105 273.3532715,428.439209 Z" style="fill:rgb(3,3,3);stroke:none" clip-path="url(#clip10)" />
<clipPath id="clip11"><path d="M39,490 L267,490 L267,539 L39,539 L39,490 Z" /></clipPath>
<path d="M50,493 C45.5817184,493 42,496.5817261 42,501 L42,527 C42,531.4182739 45.5817184,535 50,535 L255,535 C259.4182739,535 263,531.4182739 263,527 L263,501 C263,496.5817261 259.4182739,493 255,493 Z" style="fill:none;stroke:rgb(127,127,127);stroke-width:4" clip-path="url(#clip11)" />
<clipPath id="clip12"><path d="M55,501 L251,501 L251,528 L55,528 L55,501 Z" /></clipPath>
<path d="M72.0903473,512.1633301 L70.5630035,512.1633301 L70.5630035,510.2956543 L64.4453278,510.2956543 L64.4453278,512.1799316 L62.9262848,512.1799316 L62.9262848,508.901123 L66.6201324,508.901123 C66.3102341,508.2093811 66.0612106,507.7224121 65.8730621,507.4401855 L67.433609,506.9089355 C67.7379684,507.3460999 68.0672302,508.0101624 68.421402,508.901123 L72.0903473,508.901123 Z M62.3369293,511.1755371 L61.1084137,511.1755371 L61.1084137,513.607666 C61.6285934,513.3364868 61.9799957,513.1483154 62.1626129,513.0432129 L62.2954254,514.595459 L61.1084137,515.201416 L61.1084137,520.2565918 C61.1084137,520.7822876 61.0088043,521.1655273 60.8095856,521.40625 C60.6103668,521.6469727 60.372406,521.7866821 60.0957184,521.8254395 C59.8190231,521.8641357 59.2268982,521.8835449 58.3193512,521.8835449 L57.9624176,520.4060059 C58.7758942,520.4060059 59.25457,520.3824463 59.3984528,520.3354492 C59.5423279,520.2883911 59.6142731,520.1818848 59.6142731,520.0158691 L59.6142731,515.9401855 C59.0166168,516.2113037 58.4272614,516.4492798 57.8462067,516.6540527 L57.5390778,515.1682129 C58.3802185,514.8693848 59.0719528,514.581604 59.6142731,514.3049316 L59.6142731,511.1755371 L57.605484,511.1755371 L57.605484,509.7312012 L59.6142731,509.7312012 L59.6142731,507.0998535 L61.1084137,507.0998535 L61.1084137,509.7312012 L62.3369293,509.7312012 Z M72.4970856,520.7297363 L71.6172028,521.958252 C70.8147888,521.3660889 69.4811325,520.6107178 67.6162262,519.6921387 C66.2659607,520.7988892 64.5947418,521.5349121 62.6025543,521.9001465 L61.8720856,520.5305176 C63.6982498,520.1929321 65.0927887,519.6644287 66.0556793,518.9450684 C65.4026794,518.6185303 64.4840622,518.2229004 63.2998199,517.7580566 C63.7369919,517.0054321 64.2073669,515.9954834 64.7109528,514.7282715 L62.652359,514.7282715 L62.652359,513.3337402 L65.2588043,513.3337402 C65.5465622,512.5645142 65.839859,511.6984863 66.1386871,510.7355957 L67.5664215,511.0593262 C67.3672028,511.8174438 67.1181793,512.5755615 66.8193512,513.3337402 L69.1186676,513.3337402 C69.1518707,513.2341309 69.1906052,512.973999 69.2348785,512.5534668 L70.6626129,512.7941895 L70.5962067,513.3337402 L72.4140778,513.3337402 L72.4140778,514.7282715 L70.3388824,514.7282715 C69.9404373,516.3552246 69.384285,517.6307373 68.6704254,518.5549316 C70.2918396,519.4016113 71.5673981,520.1265259 72.4970856,520.7297363 Z M68.8447418,514.7282715 L66.3130035,514.7282715 C65.9754333,515.5749512 65.6572418,516.3220215 65.3584137,516.9694824 C66.3213043,517.4066162 66.9632263,517.708252 67.2841949,517.8742676 C68.0035934,516.9500732 68.5237732,515.9014282 68.8447418,514.7282715 Z M89.9536285,509.7810059 L77.9673004,509.7810059 L77.9673004,515.0354004 L83.6118317,515.0354004 C82.6212692,514.5151978 81.5892029,514.0780029 80.5156403,513.723877 L81.4536285,512.5866699 C82.0955505,512.8190918 82.7430115,513.0791626 83.3960114,513.3669434 C83.9493942,513.1898193 84.7711716,512.8328857 85.8613434,512.2961426 L79.0713043,512.2961426 L79.0713043,510.9763184 L88.4760895,510.9763184 L88.4760895,512.2961426 C87.3250427,513.0487061 86.1795349,513.6685181 85.039566,514.1555176 C85.3217926,514.315979 85.5210114,514.4626465 85.6372223,514.595459 L85.0893707,515.0354004 L89.6963043,515.0354004 L89.6963043,516.3967285 C89.0765076,517.5256348 88.4428864,518.4553223 87.7954254,519.185791 L86.5005035,518.3640137 C87.1811676,517.5947876 87.676445,516.9390259 87.9863434,516.3967285 L84.7905426,516.3967285 L84.7905426,520.6633301 C84.7905426,521.0617676 84.624527,521.3799438 84.2924957,521.6179199 C83.9604645,521.855835 82.9643707,521.944397 81.3042145,521.8835449 L80.980484,520.5305176 C81.2959137,520.513916 81.9572067,520.5056152 82.9643707,520.5056152 C83.025238,520.5056152 83.0888824,520.4724121 83.1552887,520.4060059 C83.2216949,520.3395996 83.2548981,520.2786865 83.2548981,520.2233887 L83.2548981,516.3967285 L77.867691,516.3967285 C77.7016754,518.3501587 77.2312927,520.2537842 76.4565582,522.107666 L75.0786285,521.2775879 C75.4825974,520.3755493 75.8104782,519.3171997 76.0622711,518.1025391 C76.3140564,516.8878174 76.4399567,515.7907715 76.4399567,514.8112793 L76.4399567,508.369873 L82.117691,508.369873 C81.9516678,507.9880371 81.7690506,507.6200256 81.5698395,507.2658691 L83.1718903,506.9421387 C83.3655701,507.2852173 83.5869293,507.7611389 83.8359528,508.369873 L89.9536285,508.369873 Z M96.3618317,509.814209 L95.0669098,510.5612793 C94.6075974,509.6869202 93.921402,508.7351074 93.008316,507.7058105 L94.2700348,506.892334 C95.1111755,507.8275452 95.8084412,508.8015137 96.3618317,509.814209 Z M107.0698395,520.5637207 C107.0698395,521.4712524 106.5524216,521.9250488 105.5175934,521.9250488 C105.2408981,521.9250488 104.6543121,521.9111938 103.7578278,521.8835449 L103.367691,520.4558105 C104.4357224,520.4779053 105.0818024,520.4807129 105.3059235,520.4641113 C105.5300446,520.4475098 105.6421051,520.3312988 105.6421051,520.1154785 L105.6421051,508.826416 L98.9765778,508.826416 L98.9765778,514.7946777 C98.9765778,516.7647095 98.8617477,518.2380981 98.6320953,519.2148438 C98.4024353,520.1915283 98.0745544,521.0977173 97.6484528,521.9333496 L96.4448395,521.0036621 C97.2029724,519.4431152 97.5820465,517.414917 97.5820465,514.9191895 L97.5820465,507.4567871 L107.0698395,507.4567871 Z M105.0610504,514.404541 L99.4746246,514.404541 L99.4746246,513.1013184 L101.6328278,513.1013184 L101.6328278,511.7067871 L99.7402496,511.7067871 L99.7402496,510.3786621 L101.6328278,510.3786621 L101.6328278,509.2580566 L103.0107574,509.2580566 L103.0107574,510.3786621 L104.8950348,510.3786621 L104.8950348,511.7067871 L103.0107574,511.7067871 L103.0107574,513.1013184 L105.0610504,513.1013184 Z M96.8515778,519.0612793 C95.9882965,519.8470459 95.2965622,520.4031982 94.7763824,520.7297363 L94.0957184,519.7419434 C94.1897888,519.5648193 94.2368317,519.348999 94.2368317,519.0944824 L94.2368317,512.8937988 L92.6347809,512.8937988 L92.6347809,511.4660645 L95.6977692,511.4660645 L95.6977692,518.2312012 C95.9467926,518.0264282 96.1736755,517.8216553 96.3784332,517.6169434 Z M104.6875153,519.6257324 L99.7402496,519.6257324 L99.7402496,515.3425293 L104.6875153,515.3425293 Z M103.3510895,518.2976074 L103.3510895,516.6706543 L101.0849762,516.6706543 L101.0849762,518.2976074 Z M124.1196442,520.2067871 C124.1196442,520.6660767 123.9536285,521.0672607 123.6215973,521.4104004 C123.289566,521.753479 122.7057419,521.9250488 121.8701324,521.9250488 C121.4882965,521.9250488 121.0926208,521.9111938 120.6831207,521.8835449 L120.2265778,520.3894043 L122.1274567,520.3728027 C122.2602692,520.3728027 122.3792419,520.31604 122.4843903,520.2026367 C122.5895309,520.0891724 122.6421051,519.9660645 122.6421051,519.833252 L122.6421051,516.7702637 L118.4585114,516.7702637 L118.4585114,521.5266113 L117.0141754,521.5266113 L117.0141754,516.7702637 L112.8969879,516.7702637 C112.7088318,518.9561157 112.2052536,520.6965332 111.3862457,521.9914551 L110.0415192,521.119873 C110.5174255,520.411499 110.8854294,519.4749146 111.1455231,518.3100586 C111.4056091,517.1451416 111.5356598,516.0314941 111.5356598,514.9689941 L111.5356598,507.4401855 L124.1196442,507.4401855 Z M122.6421051,511.3830566 L122.6421051,508.9177246 L118.4585114,508.9177246 L118.4585114,511.3830566 Z M117.0141754,511.3830566 L117.0141754,508.9177246 L113.046402,508.9177246 L113.046402,511.3830566 Z M122.6421051,515.3425293 L122.6421051,512.7941895 L118.4585114,512.7941895 L118.4585114,515.3425293 Z M117.0141754,515.3425293 L117.0141754,512.7941895 L113.046402,512.7941895 L113.046402,515.3425293 Z M131.374527,509.814209 L130.0796051,510.5612793 C129.6203003,509.6869202 128.9340973,508.7351074 128.0210114,507.7058105 L129.2827301,506.892334 C130.1238708,507.8275452 130.8211365,508.8015137 131.374527,509.814209 Z M142.0825348,520.5637207 C142.0825348,521.4712524 141.5651245,521.9250488 140.5302887,521.9250488 C140.2536011,521.9250488 139.6670074,521.9111938 138.7705231,521.8835449 L138.3803864,520.4558105 C139.4484253,520.4779053 140.0944977,520.4807129 140.3186188,520.4641113 C140.5427399,520.4475098 140.6548004,520.3312988 140.6548004,520.1154785 L140.6548004,508.826416 L133.9892731,508.826416 L133.9892731,514.7946777 C133.9892731,516.7647095 133.8744507,518.2380981 133.6447906,519.2148438 C133.4151306,520.1915283 133.0872498,521.0977173 132.6611481,521.9333496 L131.4575348,521.0036621 C132.2156677,519.4431152 132.5947418,517.414917 132.5947418,514.9191895 L132.5947418,507.4567871 L142.0825348,507.4567871 Z M140.0737457,514.404541 L134.4873199,514.404541 L134.4873199,513.1013184 L136.6455231,513.1013184 L136.6455231,511.7067871 L134.7529449,511.7067871 L134.7529449,510.3786621 L136.6455231,510.3786621 L136.6455231,509.2580566 L138.0234528,509.2580566 L138.0234528,510.3786621 L139.9077301,510.3786621 L139.9077301,511.7067871 L138.0234528,511.7067871 L138.0234528,513.1013184 L140.0737457,513.1013184 Z M131.8642731,519.0612793 C131.0009918,519.8470459 130.3092651,520.4031982 129.7890778,520.7297363 L129.1084137,519.7419434 C129.2024841,519.5648193 129.249527,519.348999 129.249527,519.0944824 L129.249527,512.8937988 L127.6474762,512.8937988 L127.6474762,511.4660645 L130.7104645,511.4660645 L130.7104645,518.2312012 C130.9594879,518.0264282 131.1863708,517.8216553 131.3911285,517.6169434 Z M139.7002106,519.6257324 L134.7529449,519.6257324 L134.7529449,515.3425293 L139.7002106,515.3425293 Z M138.3637848,518.2976074 L138.3637848,516.6706543 L136.0976715,516.6706543 L136.0976715,518.2976074 Z M159.1323395,520.2067871 C159.1323395,520.6660767 158.9663239,521.0672607 158.6342926,521.4104004 C158.3022614,521.753479 157.7184448,521.9250488 156.8828278,521.9250488 C156.5009918,521.9250488 156.1053162,521.9111938 155.695816,521.8835449 L155.2392731,520.3894043 L157.140152,520.3728027 C157.2729645,520.3728027 157.3919373,520.31604 157.4970856,520.2026367 C157.6022339,520.0891724 157.6548004,519.9660645 157.6548004,519.833252 L157.6548004,516.7702637 L153.4712067,516.7702637 L153.4712067,521.5266113 L152.0268707,521.5266113 L152.0268707,516.7702637 L147.9096832,516.7702637 C147.7215271,518.9561157 147.2179565,520.6965332 146.398941,521.9914551 L145.0542145,521.119873 C145.5301208,520.411499 145.8981323,519.4749146 146.1582184,518.3100586 C146.4183044,517.1451416 146.5483551,516.0314941 146.5483551,514.9689941 L146.5483551,507.4401855 L159.1323395,507.4401855 Z M157.6548004,511.3830566 L157.6548004,508.9177246 L153.4712067,508.9177246 L153.4712067,511.3830566 Z M152.0268707,511.3830566 L152.0268707,508.9177246 L148.0590973,508.9177246 L148.0590973,511.3830566 Z M157.6548004,515.3425293 L157.6548004,512.7941895 L153.4712067,512.7941895 L153.4712067,515.3425293 Z M152.0268707,515.3425293 L152.0268707,512.7941895 L148.0590973,512.7941895 L148.0590973,515.3425293 Z M167.914566,519.1193848 C167.007019,519.9051514 166.06073,520.6135254 165.0756989,521.2443848 L164.2456207,520.173584 C164.3341675,520.0518188 164.3784332,519.8913574 164.3784332,519.6921387 L164.3784332,516.4133301 L162.7846832,516.4133301 L162.7846832,515.052002 L164.3784332,515.052002 L164.3784332,513.076416 L163.7973785,513.076416 L163.5649567,513.5744629 L162.4111481,512.5202637 C163.1416168,511.0869751 163.7226715,509.2109985 164.1543121,506.892334 L165.5654449,507.1994629 C165.4879761,507.7749634 165.3772888,508.3117676 165.2334137,508.8098145 L167.6406403,508.8098145 L167.6406403,510.154541 L164.8515778,510.154541 C164.7575073,510.5086975 164.5942535,511.0371704 164.3618317,511.7399902 L167.0844879,511.7399902 L167.0844879,513.076416 L165.8061676,513.076416 L165.8061676,515.052002 L167.6074371,515.052002 L167.6074371,516.4133301 L165.8061676,516.4133301 L165.8061676,519.0612793 C166.1935425,518.7956543 166.6639099,518.4331665 167.2173004,517.973877 Z M170.5127106,509.7810059 L169.2758942,510.5612793 C168.9328003,509.7422485 168.3434448,508.7959595 167.5078278,507.7224121 L168.7280426,506.9753418 C169.353363,507.750061 169.9482574,508.6853027 170.5127106,509.7810059 Z M177.5185699,509.9055176 L173.5590973,509.9055176 C173.2713318,510.7964478 172.886734,511.7704163 172.4052887,512.8273926 L173.5590973,512.8273926 L173.5590973,510.5944824 L174.9868317,510.5944824 L174.9868317,512.8273926 L177.211441,512.8273926 L177.211441,514.1887207 L174.9868317,514.1887207 L174.9868317,516.1062012 L177.4853668,516.1062012 L177.4853668,517.4509277 L174.9868317,517.4509277 L174.9868317,519.9660645 L173.5590973,519.9660645 L173.5590973,517.4509277 L170.6206207,517.4509277 L170.6206207,516.1062012 L173.5590973,516.1062012 L173.5590973,514.1887207 L170.836441,514.1887207 L170.836441,512.9436035 C171.4064331,511.8091431 171.8159332,510.7964478 172.0649567,509.9055176 L170.7700348,509.9055176 L170.7700348,508.5939941 L172.4716949,508.5939941 C172.6930542,507.9188538 172.8396912,507.3848267 172.9116364,506.9919434 L174.3393707,507.2824707 L173.9658356,508.5939941 L177.5185699,508.5939941 Z M177.6015778,520.3894043 L177.1948395,521.8005371 C176.6746521,521.8115845 176.2153473,521.8171387 175.8169098,521.8171387 C173.8302612,521.8171387 172.4205017,521.678772 171.5876617,521.4020996 C170.7548218,521.1253662 170.0700073,520.6190186 169.5332184,519.8830566 C169.0407104,520.5692139 168.4790192,521.2941895 167.8481598,522.0578613 L166.6943512,521.0866699 C167.4469604,520.2676392 168.1248474,519.4237061 168.7280426,518.5549316 L168.7280426,512.8771973 L167.6074371,512.8771973 L167.6074371,511.5158691 L170.1972809,511.5158691 L170.1972809,518.505127 C170.4739685,519.0031738 170.893158,519.4237061 171.4548492,519.7668457 C172.0165405,520.1099243 172.6681519,520.3035889 173.4096832,520.3479004 C174.1512146,520.3921509 175.0809021,520.4143066 176.1987457,520.4143066 C176.7410583,520.4143066 177.2086792,520.4060059 177.6015778,520.3894043 Z M194.1782379,516.9943848 L188.3427887,516.9943848 L188.3427887,521.9001465 L186.7822418,521.9001465 L186.7822418,516.9943848 L180.9716949,516.9943848 L180.9716949,509.814209 L186.7822418,509.814209 L186.7822418,507.083252 L188.3427887,507.083252 L188.3427887,509.814209 L194.1782379,509.814209 Z M192.6093903,515.4919434 L192.6093903,511.3083496 L188.3427887,511.3083496 L188.3427887,515.4919434 Z M186.7822418,515.4919434 L186.7822418,511.3083496 L182.5488434,511.3083496 L182.5488434,515.4919434 Z M212.3154449,509.6481934 C212.3043823,511.2751465 212.2462769,513.3848877 212.1411285,515.9775391 C212.0359802,518.5701294 211.8810425,520.098877 211.6762848,520.5637207 C211.4715271,521.0285645 211.1602478,521.3702393 210.7424469,521.5888672 C210.324646,521.8074341 209.3078003,521.9222412 207.6919098,521.9333496 L207.1274567,520.439209 L209.4018707,520.4226074 C209.617691,520.4226074 209.8473511,520.3312988 210.0908356,520.1486816 C210.3343201,519.9660645 210.5169373,518.7347412 210.6386871,516.454834 C210.760437,514.1748657 210.8185425,512.3984985 210.8130035,511.1257324 L207.4013824,511.1257324 C206.8701324,512.4759521 206.2697144,513.6270142 205.6001129,514.5788574 L204.4380035,513.5412598 C205.6554565,511.5711975 206.5131989,509.3714905 207.0112457,506.9421387 L208.5053864,507.2658691 C208.3947144,507.8413696 208.1954956,508.635498 207.9077301,509.6481934 Z M204.0976715,521.767334 L202.636734,521.767334 L202.636734,520.6467285 L199.5654449,520.6467285 L199.5654449,521.9333496 L198.0630035,521.9333496 L198.0630035,509.5651855 L199.5820465,509.5651855 C200.0081482,508.7793579 200.3401794,507.9160767 200.5781403,506.9753418 L202.1469879,507.232666 C202.0639801,507.7694397 201.7983551,508.546936 201.3501129,509.5651855 L204.0976715,509.5651855 Z M202.636734,514.1887207 L202.636734,511.0427246 L199.5654449,511.0427246 L199.5654449,514.1887207 Z M202.636734,519.185791 L202.636734,515.6164551 L199.5654449,515.6164551 L199.5654449,519.185791 Z M209.8501129,517.2434082 L208.5219879,518.0983887 C207.7915192,516.6374512 207.0084839,515.4172363 206.1728668,514.4377441 L207.5009918,513.607666 C208.6298981,515.0187988 209.4129333,516.2307129 209.8501129,517.2434082 Z M228.7094879,508.9509277 L216.4741364,508.9509277 L216.4741364,507.4567871 L228.7094879,507.4567871 Z M230.0210114,517.5505371 C229.9767456,518.8233032 229.8660583,519.7557373 229.6889801,520.3479004 C229.5119019,520.9400024 229.2185974,521.3370361 228.8090973,521.5390625 C228.3995972,521.7410278 227.6663513,521.842041 226.6093903,521.842041 C225.8844604,521.842041 225.3200073,521.8240356 224.9160309,521.7880859 C224.5120544,521.7520752 224.188324,521.6234131 223.9448395,521.4020996 C223.701355,521.1807251 223.5796051,520.8652954 223.5796051,520.4558105 L223.5796051,513.6574707 L220.964859,513.6574707 C220.854187,515.9816895 220.4349976,517.7414551 219.7072906,518.9367676 C218.9795837,520.1320801 217.777359,521.1558228 216.1006012,522.0080566 L214.9965973,520.7463379 C216.52948,520.1099243 217.6265564,519.2867432 218.2878571,518.2768555 C218.9491577,517.2669067 219.3130035,515.7271118 219.3794098,513.6574707 L215.4199371,513.6574707 L215.4199371,512.1799316 L229.730484,512.1799316 L229.730484,513.6574707 L225.1567535,513.6574707 L225.1567535,519.8996582 C225.1567535,520.0767212 225.2134705,520.1929321 225.3269196,520.248291 C225.4403687,520.3035889 225.9038239,520.3312988 226.7173004,520.3312988 C227.3481598,520.3312988 227.7438354,520.2939453 227.9043121,520.2192383 C228.0647888,520.1445313 228.1699219,520.0283203 228.2197418,519.8706055 C228.2695313,519.7128906 228.3248901,519.3808594 228.3857574,518.8745117 C228.4466248,518.3681641 228.4881287,517.6999512 228.5102692,516.869873 Z M247.4609528,513.1013184 L240.6792145,513.1013184 C239.8546753,513.7764282 238.8751831,514.3408813 237.7407379,514.7946777 C238.6427612,514.7614746 239.4714508,514.7130127 240.2268219,514.6494141 C240.982193,514.5857544 241.4248962,514.5525513 241.5549469,514.5498047 C241.6849976,514.5469971 242.2425232,514.2385254 243.2275543,513.6242676 L244.4311676,514.5124512 C242.8152771,515.4974365 240.5602417,516.4243774 237.6660309,517.2932129 C239.8518982,517.2102051 242.0073395,517.0579834 244.1323395,516.8366699 C243.8556519,516.5322876 243.542984,516.2141113 243.1943512,515.8820801 L244.3979645,515.1516113 C245.632019,516.3469238 246.5893555,517.4647217 247.2700348,518.505127 L246.0332184,519.2189941 C245.778656,518.8150024 245.438324,518.3612061 245.0122223,517.857666 C243.6121521,517.9904785 242.2397614,518.1038818 240.8950348,518.197998 L240.8950348,520.4558105 C240.8950348,521.4075928 240.4135895,521.8835449 239.4506989,521.8835449 C238.7644958,521.8835449 238.305191,521.8779907 238.0727692,521.8669434 L237.4502106,520.4558105 C237.8043823,520.4724121 238.1723633,520.4807129 238.5542145,520.4807129 C238.9139099,520.4807129 239.1366577,520.4558105 239.2224274,520.4060059 C239.308197,520.3562012 239.3510742,520.2648926 239.3510895,520.1320801 L239.3510895,518.314209 C237.5415192,518.4359131 235.729187,518.5217285 233.9140778,518.5715332 L233.6567535,517.4841309 C235.5714722,516.958374 237.2897339,516.3911743 238.8115387,515.7824707 C237.4557495,515.8986816 236.2189331,515.9788818 235.1010895,516.0231934 L234.8271637,514.9523926 C236.1995544,514.5262451 237.4087067,513.9092407 238.4546051,513.1013184 L232.7021637,513.1013184 L232.7021637,511.8894043 L239.3510895,511.8894043 L239.3510895,511.0427246 L234.0634918,511.0427246 L234.0634918,509.8806152 L239.3510895,509.8806152 L239.3510895,509.1335449 L233.2500153,509.1335449 L233.2500153,507.9133301 L239.3510895,507.9133301 L239.3510895,507.083252 L240.8618317,507.083252 L240.8618317,507.9133301 L246.9131012,507.9133301 L246.9131012,509.1335449 L240.8618317,509.1335449 L240.8618317,509.8806152 L246.1660309,509.8806152 L246.1660309,511.0427246 L240.8618317,511.0427246 L240.8618317,511.8894043 L247.4609528,511.8894043 Z M247.4277496,520.7961426 L246.6142731,521.8835449 C245.3691559,521.1364746 243.8501129,520.4226074 242.0571442,519.7419434 L242.8374176,518.6379395 C244.7133789,519.3130493 246.2434998,520.0324707 247.4277496,520.7961426 Z M237.9731598,519.7087402 C236.6339722,520.5609131 235.1453552,521.236084 233.5073395,521.7341309 L232.7187653,520.5471191 C234.2350464,520.1320801 235.6517029,519.5178223 236.9687653,518.7043457 Z" style="fill:rgb(3,3,3);stroke:none" clip-path="url(#clip12)" />
<clipPath id="clip13"><path d="M131,211 L169,211 L169,303 L131,303 L131,211 Z" /></clipPath>
<path d="M148.5110016,217.9888611 L149.6881256,297" style="fill:none;stroke:rgb(127,127,127);stroke-width:5" clip-path="url(#clip13)" />
<clipPath id="clip14"><path d="M131,211 L169,211 L169,303 L131,303 L131,211 Z" /></clipPath>
<path d="M142.5082855,284.9812622 L149.6881256,297 L156.5067291,284.7727051 Z" style="fill:rgb(127,127,127);stroke:none" clip-path="url(#clip14)" />
<clipPath id="clip15"><path d="M131,211 L169,211 L169,303 L131,303 L131,211 Z" /></clipPath>
<path d="M142.5082855,284.9812622 L149.6881256,297 L156.5067291,284.7727051 Z" style="fill:none;stroke:rgb(127,127,127);stroke-width:5" clip-path="url(#clip15)" />
<clipPath id="clip16"><path d="M132,333 L170,333 L170,407 L132,407 L132,333 Z" /></clipPath>
<path d="M150.4038391,339 L151.5961609,401" style="fill:none;stroke:rgb(127,127,127);stroke-width:5" clip-path="url(#clip16)" />
<clipPath id="clip17"><path d="M132,333 L170,333 L170,407 L132,407 L132,333 Z" /></clipPath>
<path d="M144.3643341,389.0124817 L151.5961609,401 L158.3617401,388.7432861 Z" style="fill:rgb(127,127,127);stroke:none" clip-path="url(#clip17)" />
<clipPath id="clip18"><path d="M132,333 L170,333 L170,407 L132,407 L132,333 Z" /></clipPath>
<path d="M144.3643341,389.0124817 L151.5961609,401 L158.3617401,388.7432861 Z" style="fill:none;stroke:rgb(127,127,127);stroke-width:5" clip-path="url(#clip18)" />
<clipPath id="clip19"><path d="M134,437 L172,437 L172,499 L134,499 L134,437 Z" /></clipPath>
<path d="M152.2282562,443 L152.3858643,493" style="fill:none;stroke:rgb(127,127,127);stroke-width:5" clip-path="url(#clip19)" />
<clipPath id="clip20"><path d="M134,437 L172,437 L172,499 L134,499 L134,437 Z" /></clipPath>
<path d="M145.3476868,480.8977661 L152.3858643,493 L159.3476105,480.8536377 Z" style="fill:rgb(127,127,127);stroke:none" clip-path="url(#clip20)" />
<clipPath id="clip21"><path d="M134,437 L172,437 L172,499 L134,499 L134,437 Z" /></clipPath>
<path d="M145.3476868,480.8977661 L152.3858643,493 L159.3476105,480.8536377 Z" style="fill:none;stroke:rgb(127,127,127);stroke-width:5" clip-path="url(#clip21)" />
</svg>
